<?xml version="1.0" encoding="UTF-8"?>
<svg xmlns="http://www.w3.org/2000/svg" xmlns:xlink="http://www.w3.org/1999/xlink" width="486px" height="486px" viewBox="0 0 486 486" version="1.1">
<defs>
<filter id="alpha" filterUnits="objectBoundingBox" x="0%" y="0%" width="100%" height="100%">
  <feColorMatrix type="matrix" in="SourceGraphic" values="0 0 0 0 1 0 0 0 0 1 0 0 0 0 1 0 0 0 1 0"/>
</filter>
<mask id="mask0">
  <g filter="url(#alpha)">
<rect x="0" y="0" width="486" height="486" style="fill:rgb(0%,0%,0%);fill-opacity:0.701961;stroke:none;"/>
  </g>
</mask>
<clipPath id="clip1">
  <rect x="0" y="0" width="486" height="486"/>
</clipPath>
<g id="surface5" clip-path="url(#clip1)">
<path style=" stroke:none;fill-rule:nonzero;fill:rgb(100%,100%,100%);fill-opacity:1;" d="M 89.578125 134.136719 C 157.6875 56.636719 274.621094 43.738281 326.746094 68.632812 C 347.003906 78.230469 365.738281 90.75 382.355469 105.792969 C 384.53125 107.738281 386.648438 109.734375 388.703125 111.789062 C 395.117188 118.105469 401.132812 124.816406 406.714844 131.882812 C 413.402344 140.332031 419.4375 149.28125 424.765625 158.648438 C 432.394531 171.984375 438.441406 186.164062 442.773438 200.902344 C 445.644531 210.574219 447.527344 220.507812 448.394531 230.558594 C 449.878906 249.425781 448.585938 268.464844 446.050781 287.175781 C 445.816406 288.964844 445.566406 290.753906 445.292969 292.542969 C 445.222656 293.039062 445.15625 293.515625 445.078125 294.03125 C 442.289062 312.664062 438.34375 331.460938 429.527344 347.714844 C 419.902344 365.472656 386.332031 414.742188 349.921875 416.015625 C 331.035156 416.6875 314.355469 404.351562 297.238281 395.605469 C 270.023438 381.722656 239.21875 379.003906 209.183594 378.195312 C 179.148438 377.390625 148.746094 378.253906 119.476562 370.808594 C 90.210938 363.363281 61.519531 346.265625 46.558594 317.84375 C 41.476562 308.183594 37.617188 294.261719 37.605469 283.125 C 37.605469 250.261719 42.972656 221.519531 52.34375 196.546875 C 55.316406 188.585938 58.789062 180.816406 62.734375 173.289062 C 68.511719 162.246094 75.320312 151.777344 83.066406 142.019531 Z M 89.578125 134.136719 "/>
</g>
<mask id="mask1">
  <g filter="url(#alpha)">
<rect x="0" y="0" width="486" height="486" style="fill:rgb(0%,0%,0%);fill-opacity:0.2;stroke:none;"/>
  </g>
</mask>
<clipPath id="clip2">
  <rect x="0" y="0" width="486" height="486"/>
</clipPath>
<g id="surface8" clip-path="url(#clip2)">
<path style=" stroke:none;fill-rule:nonzero;fill:rgb(100%,100%,100%);fill-opacity:1;" d="M 294.613281 134.175781 L 213.792969 414.878906 L 245.886719 414.847656 L 323.714844 134.175781 Z M 294.613281 134.175781 "/>
</g>
<mask id="mask2">
  <g filter="url(#alpha)">
<rect x="0" y="0" width="486" height="486" style="fill:rgb(0%,0%,0%);fill-opacity:0.2;stroke:none;"/>
  </g>
</mask>
<clipPath id="clip3">
  <rect x="0" y="0" width="486" height="486"/>
</clipPath>
<g id="surface11" clip-path="url(#clip3)">
<path style=" stroke:none;fill-rule:nonzero;fill:rgb(100%,100%,100%);fill-opacity:1;" d="M 282.558594 134.175781 L 197.113281 414.886719 L 201.789062 414.859375 L 285.632812 134.175781 Z M 282.558594 134.175781 "/>
</g>
<clipPath id="clip4">
  <path d="M 353 238 L 371 238 L 371 247 L 353 247 Z M 353 238 "/>
</clipPath>
<clipPath id="clip5">
  <path d="M 373.539062 241.785156 C 373.539062 241.785156 339.664062 252.28125 333.289062 243.992188 L 334.152344 201.699219 L 339.296875 201.699219 L 345.34375 231.492188 L 373.101562 226.40625 C 373.101562 226.40625 376.660156 237.429688 373.539062 241.785156 Z M 373.539062 241.785156 "/>
</clipPath>
<clipPath id="clip6">
  <path d="M 370 245 L 397 245 L 397 296 L 370 296 Z M 370 245 "/>
</clipPath>
<clipPath id="clip7">
  <path d="M 370.214844 242.894531 L 376.164062 279.519531 C 376.007812 303.253906 387.332031 299.6875 395.195312 299.617188 C 404.285156 299.542969 418.078125 290.53125 411.3125 276.503906 L 413.917969 225.738281 L 398.082031 224.53125 C 392.863281 224.125 371.480469 224.792969 369.777344 227.527344 C 365.363281 234.613281 370.214844 242.894531 370.214844 242.894531 Z M 370.214844 242.894531 "/>
</clipPath>
<clipPath id="clip8">
  <path d="M 407 241 L 413 241 L 413 247 L 407 247 Z M 407 241 "/>
</clipPath>
<clipPath id="clip9">
  <path d="M 370.214844 242.894531 L 376.164062 279.519531 C 376.007812 303.253906 387.332031 299.6875 395.195312 299.617188 C 404.285156 299.542969 418.078125 290.53125 411.3125 276.503906 L 413.917969 225.738281 L 398.082031 224.53125 C 392.863281 224.125 371.480469 224.792969 369.777344 227.527344 C 365.363281 234.613281 370.214844 242.894531 370.214844 242.894531 Z M 370.214844 242.894531 "/>
</clipPath>
<clipPath id="clip10">
  <path d="M 410 237 L 422 237 L 422 258 L 410 258 Z M 410 237 "/>
</clipPath>
<clipPath id="clip11">
  <path d="M 428.835938 248.636719 C 426.460938 245.179688 424.710938 241.328125 423.664062 237.265625 C 423.285156 235.230469 422.691406 233.238281 421.898438 231.328125 C 420.375 228.332031 417.535156 226.226562 414.226562 225.640625 C 413.53125 225.488281 412.808594 225.519531 412.128906 225.738281 C 410.71875 226.273438 410.097656 227.894531 409.816406 229.371094 C 409.203125 232.546875 409.386719 235.820312 410.339844 238.90625 C 410.992188 241.007812 418.816406 256.230469 423.949219 262.128906 C 423.5 259.15625 426.921875 249.210938 428.835938 248.636719 Z M 428.835938 248.636719 "/>
</clipPath>
</defs>
<g id="surface1">
<path style=" stroke:none;fill-rule:nonzero;fill:rgb(20.392157%,59.607843%,85.882353%);fill-opacity:1;" d="M 89.578125 134.136719 C 157.6875 56.636719 274.621094 43.738281 326.746094 68.632812 C 347.003906 78.230469 365.738281 90.75 382.355469 105.792969 C 384.53125 107.738281 386.648438 109.734375 388.703125 111.789062 C 395.117188 118.105469 401.132812 124.816406 406.714844 131.882812 C 413.402344 140.332031 419.4375 149.28125 424.765625 158.648438 C 432.394531 171.984375 438.441406 186.164062 442.773438 200.902344 C 445.644531 210.574219 447.527344 220.507812 448.394531 230.558594 C 449.878906 249.425781 448.585938 268.464844 446.050781 287.175781 C 445.816406 288.964844 445.566406 290.753906 445.292969 292.542969 C 445.222656 293.039062 445.15625 293.515625 445.078125 294.03125 C 442.289062 312.664062 438.34375 331.460938 429.527344 347.714844 C 419.902344 365.472656 386.332031 414.742188 349.921875 416.015625 C 331.035156 416.6875 314.355469 404.351562 297.238281 395.605469 C 270.023438 381.722656 239.21875 379.003906 209.183594 378.195312 C 179.148438 377.390625 148.746094 378.253906 119.476562 370.808594 C 90.210938 363.363281 61.519531 346.265625 46.558594 317.84375 C 41.476562 308.183594 37.617188 294.261719 37.605469 283.125 C 37.605469 250.261719 42.972656 221.519531 52.34375 196.546875 C 55.316406 188.585938 58.789062 180.816406 62.734375 173.289062 C 68.511719 162.246094 75.320312 151.777344 83.066406 142.019531 Z M 89.578125 134.136719 "/>
<use xlink:href="#surface5" mask="url(#mask0)"/>
<path style="fill:none;stroke-width:1;stroke-linecap:round;stroke-linejoin:round;stroke:rgb(14.901961%,19.607843%,21.960784%);stroke-opacity:1;stroke-miterlimit:4;" d="M 38.688754 426.838188 L 468.741962 426.838188 " transform="matrix(0.972,0,0,0.972,0,0)"/>
<path style="fill:none;stroke-width:1;stroke-linecap:round;stroke-linejoin:round;stroke:rgb(14.901961%,19.607843%,21.960784%);stroke-opacity:1;stroke-miterlimit:4;" d="M 369.65101 281.768422 L 369.65101 281.880948 C 369.65101 282.061793 369.691197 282.250675 369.771573 282.451614 C 370.217657 284.641847 370.551215 286.856192 370.768229 289.078575 C 370.96113 290.991512 371.109825 293.169689 371.150013 295.601048 C 371.246463 301.215278 370.860661 306.829507 370.000643 312.379437 C 369.77961 313.838252 369.51839 315.381462 369.208944 316.920653 C 368.718654 319.46052 368.119856 322.120949 367.380401 324.869792 C 367.050862 326.151781 366.669078 327.461902 366.271219 328.78006 L 365.801022 330.39159 C 365.620177 331.038612 365.439333 331.689654 365.270544 332.388921 C 364.121174 336.833687 363.200874 341.330697 362.521701 345.871914 C 361.669721 351.518293 361.139243 357.128504 360.849891 362.441326 C 360.460069 369.51839 360.480163 376.060957 360.648952 381.438079 C 360.644933 381.530511 360.644933 381.618924 360.648952 381.711355 C 360.829797 387.180909 361.171393 391.468943 361.400463 393.90834 C 361.529064 395.339024 361.621496 396.150817 361.629533 396.199042 " transform="matrix(0.972,0,0,0.972,0,0)"/>
<path style="fill-rule:nonzero;fill:rgb(100%,100%,100%);fill-opacity:1;stroke-width:1;stroke-linecap:round;stroke-linejoin:round;stroke:rgb(14.901961%,19.607843%,21.960784%);stroke-opacity:1;stroke-miterlimit:4;" d="M 369.679141 281.909079 C 368.184156 280.578864 366.379726 279.64249 364.43062 279.180331 " transform="matrix(0.972,0,0,0.972,0,0)"/>
<path style="fill:none;stroke-width:1;stroke-linecap:round;stroke-linejoin:round;stroke:rgb(14.901961%,19.607843%,21.960784%);stroke-opacity:1;stroke-miterlimit:4;" d="M 370.800379 289.110725 L 373.460809 286.69946 " transform="matrix(0.972,0,0,0.972,0,0)"/>
<path style="fill:none;stroke-width:1;stroke-linecap:round;stroke-linejoin:round;stroke:rgb(14.901961%,19.607843%,21.960784%);stroke-opacity:1;stroke-miterlimit:4;" d="M 367.408533 324.881848 C 367.271894 324.178562 367.062918 323.491352 366.789641 322.828254 C 366.395801 321.859729 365.861304 320.951485 365.198206 320.139693 C 364.707915 319.528839 364.145287 318.974248 363.530414 318.491995 " transform="matrix(0.972,0,0,0.972,0,0)"/>
<path style="fill:none;stroke-width:1;stroke-linecap:round;stroke-linejoin:round;stroke:rgb(14.901961%,19.607843%,21.960784%);stroke-opacity:1;stroke-miterlimit:4;" d="M 365.278582 332.380883 C 366.042149 330.492059 367.553209 329.005112 369.450071 328.269676 " transform="matrix(0.972,0,0,0.972,0,0)"/>
<path style="fill-rule:nonzero;fill:rgb(100%,100%,100%);fill-opacity:1;stroke-width:1;stroke-linecap:round;stroke-linejoin:round;stroke:rgb(14.901961%,19.607843%,21.960784%);stroke-opacity:1;stroke-miterlimit:4;" d="M 360.661008 369.578672 C 361.549158 368.50164 362.220293 364.410526 362.581983 362.208237 C 362.670396 361.689815 362.738715 361.211581 362.811053 360.91821 " transform="matrix(0.972,0,0,0.972,0,0)"/>
<path style="fill-rule:nonzero;fill:rgb(100%,100%,100%);fill-opacity:1;stroke-width:1;stroke-linecap:round;stroke-linejoin:round;stroke:rgb(14.901961%,19.607843%,21.960784%);stroke-opacity:1;stroke-miterlimit:4;" d="M 353.808996 377.00135 C 354.106385 376.9692 354.403774 376.9692 354.701164 377.00135 C 357.369631 377.258552 359.676408 378.97055 360.701196 381.450135 " transform="matrix(0.972,0,0,0.972,0,0)"/>
<path style="fill:none;stroke-width:1;stroke-linecap:round;stroke-linejoin:round;stroke:rgb(14.901961%,19.607843%,21.960784%);stroke-opacity:1;stroke-miterlimit:4;" d="M 369.241094 317.001029 C 369.241094 317.001029 369.711291 300.769194 360.801665 294.881687 " transform="matrix(0.972,0,0,0.972,0,0)"/>
<path style=" stroke:none;fill-rule:nonzero;fill:rgb(20.392157%,59.607843%,85.882353%);fill-opacity:1;" d="M 359.640625 341.941406 C 360.777344 345.625 352.835938 352.632812 352.835938 352.632812 C 352.835938 352.632812 342.347656 351.320312 341.171875 347.644531 C 339.996094 343.972656 342.6875 337.925781 347.78125 336.371094 C 352.875 334.816406 358.542969 338.257812 359.640625 341.941406 Z M 359.640625 341.941406 "/>
<path style=" stroke:none;fill-rule:nonzero;fill:rgb(20.392157%,59.607843%,85.882353%);fill-opacity:1;" d="M 368.476562 297.296875 C 367.503906 301.183594 359.960938 303.972656 359.960938 303.972656 C 359.960938 303.972656 354.78125 297.917969 355.753906 294.011719 C 356.722656 290.101562 360.914062 285.808594 364.433594 286.710938 C 367.949219 287.613281 369.488281 293.386719 368.476562 297.296875 Z M 368.476562 297.296875 "/>
<path style=" stroke:none;fill-rule:nonzero;fill:rgb(20.392157%,59.607843%,85.882353%);fill-opacity:1;" d="M 338.351562 355.683594 C 343.066406 357.511719 345.953125 365.851562 345.953125 365.851562 C 345.953125 365.851562 338.179688 370.039062 333.472656 368.203125 C 328.769531 366.367188 323.753906 361.195312 325.113281 357.746094 C 326.476562 354.292969 333.640625 353.808594 338.351562 355.683594 Z M 338.351562 355.683594 "/>
<path style=" stroke:none;fill-rule:nonzero;fill:rgb(20.392157%,59.607843%,85.882353%);fill-opacity:1;" d="M 348.6875 309.804688 C 349.640625 310.609375 350.734375 311.226562 351.914062 311.632812 C 353.117188 312.023438 354.441406 311.707031 355.34375 310.816406 C 356.316406 309.660156 356.082031 307.902344 355.449219 306.453125 C 354.1875 303.683594 349.539062 298.96875 345.972656 300.320312 C 340.820312 302.292969 346.390625 308.125 348.6875 309.804688 Z M 348.6875 309.804688 "/>
<path style=" stroke:none;fill-rule:nonzero;fill:rgb(20.392157%,59.607843%,85.882353%);fill-opacity:1;" d="M 359.230469 316.871094 C 358.550781 317.707031 357.832031 318.765625 358.210938 319.789062 C 358.644531 320.667969 359.621094 321.148438 360.582031 320.953125 C 361.515625 320.734375 362.386719 320.304688 363.128906 319.699219 C 364.945312 318.4375 368.679688 315.8125 366.296875 313.316406 C 363.917969 310.816406 360.613281 315.113281 359.230469 316.871094 Z M 359.230469 316.871094 "/>
<path style=" stroke:none;fill-rule:nonzero;fill:rgb(20.392157%,59.607843%,85.882353%);fill-opacity:1;" d="M 344.019531 281.617188 C 343.214844 281.664062 342.53125 282.21875 342.320312 282.996094 C 342.164062 283.902344 342.910156 284.6875 343.632812 285.242188 C 345.4375 286.644531 350.871094 290.394531 352.078125 286.769531 C 353.226562 283.347656 346.410156 281.355469 344.019531 281.617188 Z M 344.019531 281.617188 "/>
<path style=" stroke:none;fill-rule:nonzero;fill:rgb(20.392157%,59.607843%,85.882353%);fill-opacity:1;" d="M 354.023438 269.699219 C 352.902344 269.808594 351.785156 269.398438 350.660156 269.46875 C 349.53125 269.535156 348.296875 270.441406 348.539062 271.546875 C 348.78125 272.65625 350.035156 272.898438 351.066406 272.957031 C 352.839844 273.070312 354.621094 272.949219 356.363281 272.597656 C 356.777344 272.558594 357.160156 272.363281 357.433594 272.054688 C 357.890625 271.382812 357.171875 270.488281 356.394531 270.253906 C 355.59375 270.148438 354.808594 269.960938 354.050781 269.691406 Z M 354.023438 269.699219 "/>
<path style=" stroke:none;fill-rule:nonzero;fill:rgb(20.392157%,59.607843%,85.882353%);fill-opacity:1;" d="M 364.964844 277.410156 C 366.085938 277.410156 367.171875 276.960938 368.300781 276.953125 C 369.429688 276.941406 370.730469 277.769531 370.546875 278.894531 C 370.359375 280.023438 369.15625 280.34375 368.125 280.46875 C 366.363281 280.703125 364.578125 280.703125 362.820312 280.46875 C 362.402344 280.460938 362.003906 280.289062 361.710938 279.996094 C 361.214844 279.363281 361.875 278.417969 362.625 278.128906 C 363.417969 277.980469 364.1875 277.742188 364.925781 277.417969 Z M 364.964844 277.410156 "/>
<path style=" stroke:none;fill-rule:nonzero;fill:rgb(20.392157%,59.607843%,85.882353%);fill-opacity:1;" d="M 363.859375 360.242188 C 364.117188 359.972656 364.460938 359.804688 364.832031 359.765625 C 365.34375 359.816406 365.753906 360.222656 365.800781 360.738281 C 365.855469 361.21875 365.796875 361.703125 365.628906 362.15625 C 364.859375 364.714844 356.304688 383.171875 354.332031 379.859375 C 353.175781 377.914062 356.035156 371.410156 356.878906 369.574219 C 358.492188 365.988281 360.875 362.804688 363.859375 360.242188 Z M 363.859375 360.242188 "/>
<path style="fill:none;stroke-width:1;stroke-linecap:round;stroke-linejoin:round;stroke:rgb(14.901961%,19.607843%,21.960784%);stroke-opacity:1;stroke-miterlimit:4;" d="M 370.048868 282.998167 C 370.048868 282.998167 369.51839 278.388632 370.631591 277.99881 " transform="matrix(0.972,0,0,0.972,0,0)"/>
<path style=" stroke:none;fill-rule:nonzero;fill:rgb(20.392157%,59.607843%,85.882353%);fill-opacity:1;" d="M 358.734375 270.402344 C 359.289062 268.816406 360.238281 267.40625 361.496094 266.300781 C 362.847656 265.328125 365.015625 265.25 365.996094 266.601562 C 367.09375 268.105469 365.996094 270.390625 364.316406 271.199219 C 362.632812 272.003906 360.652344 271.761719 358.804688 271.5 C 358.804688 271.226562 358.804688 270.953125 358.804688 270.683594 Z M 358.734375 270.402344 "/>
<path style="fill-rule:nonzero;fill:rgb(100%,100%,100%);fill-opacity:1;stroke-width:1;stroke-linecap:round;stroke-linejoin:round;stroke:rgb(14.901961%,19.607843%,21.960784%);stroke-opacity:1;stroke-miterlimit:4;" d="M 373.810442 426.609118 C 364.382395 428.200553 354.757427 428.200553 345.329379 426.609118 L 334.249614 393.920396 L 384.890207 393.920396 Z M 373.810442 426.609118 " transform="matrix(0.972,0,0,0.972,0,0)"/>
<path style="fill:none;stroke-width:1;stroke-linecap:round;stroke-linejoin:round;stroke:rgb(14.901961%,19.607843%,21.960784%);stroke-opacity:1;stroke-miterlimit:4;" d="M 180.551537 190.429688 L 180.551537 190.538194 C 180.591725 190.719039 180.631912 190.911941 180.668081 191.108861 C 181.122203 193.299093 181.455761 195.513439 181.668756 197.739841 C 181.861658 199.648759 181.998296 201.830954 182.05054 204.258295 C 182.15101 209.860468 181.777263 215.462641 180.929302 221.000514 C 180.708269 222.45933 180.451067 223.998521 180.141622 225.541731 C 179.651331 228.081597 179.040477 230.738008 178.30906 233.490869 C 177.971483 234.76884 177.601755 236.078961 177.199878 237.401138 C 177.039127 237.939654 176.878376 238.470132 176.729681 239.008648 C 176.580986 239.551183 176.359954 240.310732 176.191165 241.009999 C 175.041795 245.454765 174.121496 249.951775 173.438304 254.488972 C 172.590342 260.139371 172.07192 265.749582 171.778549 271.058385 C 171.388728 278.139468 171.400784 284.678016 171.581629 290.059156 L 171.581629 290.328414 C 171.770512 295.801987 172.100051 300.090021 172.341178 302.541474 C 172.461741 303.960102 172.558192 304.771894 172.558192 304.82012 " transform="matrix(0.972,0,0,0.972,0,0)"/>
<path style="fill-rule:nonzero;fill:rgb(100%,100%,100%);fill-opacity:1;stroke-width:1;stroke-linecap:round;stroke-linejoin:round;stroke:rgb(14.901961%,19.607843%,21.960784%);stroke-opacity:1;stroke-miterlimit:4;" d="M 180.571631 190.570345 C 179.85227 189.943416 179.068609 189.396862 178.228684 188.938722 C 177.304366 188.45245 176.323785 188.082722 175.311053 187.841596 " transform="matrix(0.972,0,0,0.972,0,0)"/>
<path style="fill:none;stroke-width:1;stroke-linecap:round;stroke-linejoin:round;stroke:rgb(14.901961%,19.607843%,21.960784%);stroke-opacity:1;stroke-miterlimit:4;" d="M 181.68885 197.771991 L 184.361336 195.360725 " transform="matrix(0.972,0,0,0.972,0,0)"/>
<path style="fill:none;stroke-width:1;stroke-linecap:round;stroke-linejoin:round;stroke:rgb(14.901961%,19.607843%,21.960784%);stroke-opacity:1;stroke-miterlimit:4;" d="M 178.30906 233.539095 C 178.168403 232.835809 177.955408 232.152617 177.678112 231.489519 C 177.284272 230.520994 176.749775 229.612751 176.090696 228.800958 C 175.596386 228.190104 175.037776 227.635513 174.418885 227.149241 " transform="matrix(0.972,0,0,0.972,0,0)"/>
<path style="fill:none;stroke-width:1;stroke-linecap:round;stroke-linejoin:round;stroke:rgb(14.901961%,19.607843%,21.960784%);stroke-opacity:1;stroke-miterlimit:4;" d="M 176.179109 241.001961 C 176.934639 239.109118 178.44168 237.622171 180.338542 236.890754 " transform="matrix(0.972,0,0,0.972,0,0)"/>
<path style="fill-rule:nonzero;fill:rgb(100%,100%,100%);fill-opacity:1;stroke-width:1;stroke-linecap:round;stroke-linejoin:round;stroke:rgb(14.901961%,19.607843%,21.960784%);stroke-opacity:1;stroke-miterlimit:4;" d="M 171.549479 278.239937 C 172.441647 277.158886 173.12082 273.071791 173.478492 270.869502 C 173.558867 270.35108 173.639243 269.868827 173.699524 269.579475 " transform="matrix(0.972,0,0,0.972,0,0)"/>
<path style="fill-rule:nonzero;fill:rgb(100%,100%,100%);fill-opacity:1;stroke-width:1;stroke-linecap:round;stroke-linejoin:round;stroke:rgb(14.901961%,19.607843%,21.960784%);stroke-opacity:1;stroke-miterlimit:4;" d="M 164.701485 285.618409 C 164.998875 285.590278 165.300283 285.590278 165.601691 285.618409 C 168.266139 285.887667 170.572917 287.595647 171.601723 290.071213 " transform="matrix(0.972,0,0,0.972,0,0)"/>
<path style="fill:none;stroke-width:1;stroke-linecap:round;stroke-linejoin:round;stroke:rgb(14.901961%,19.607843%,21.960784%);stroke-opacity:1;stroke-miterlimit:4;" d="M 180.129565 225.618088 C 180.129565 225.618088 180.611818 209.390271 171.690136 203.498746 " transform="matrix(0.972,0,0,0.972,0,0)"/>
<path style=" stroke:none;fill-rule:nonzero;fill:rgb(20.392157%,59.607843%,85.882353%);fill-opacity:1;" d="M 175.875 253.15625 C 177 256.839844 169.070312 263.847656 169.070312 263.847656 C 169.070312 263.847656 158.570312 262.539062 157.40625 258.863281 C 156.238281 255.1875 158.933594 249.144531 164.015625 247.585938 C 169.097656 246.03125 174.738281 249.484375 175.875 253.15625 Z M 175.875 253.15625 "/>
<path style=" stroke:none;fill-rule:nonzero;fill:rgb(20.392157%,59.607843%,85.882353%);fill-opacity:1;" d="M 184.679688 208.511719 C 183.707031 212.402344 176.164062 215.191406 176.164062 215.191406 C 176.164062 215.191406 170.925781 209.136719 171.9375 205.226562 C 172.949219 201.320312 177.089844 197.023438 180.605469 197.929688 C 184.125 198.832031 185.652344 204.605469 184.679688 208.511719 Z M 184.679688 208.511719 "/>
<path style=" stroke:none;fill-rule:nonzero;fill:rgb(20.392157%,59.607843%,85.882353%);fill-opacity:1;" d="M 154.546875 266.902344 C 159.261719 268.738281 162.160156 277.070312 162.160156 277.070312 C 162.160156 277.070312 154.382812 281.257812 149.667969 279.421875 C 144.953125 277.582031 139.949219 272.414062 141.320312 268.960938 C 142.691406 265.511719 149.824219 265.0625 154.546875 266.902344 Z M 154.546875 266.902344 "/>
<path style=" stroke:none;fill-rule:nonzero;fill:rgb(20.392157%,59.607843%,85.882353%);fill-opacity:1;" d="M 164.878906 221.023438 C 165.832031 221.824219 166.921875 222.445312 168.097656 222.851562 C 169.304688 223.242188 170.628906 222.925781 171.527344 222.035156 C 172.5 220.878906 172.265625 219.117188 171.636719 217.667969 C 170.371094 214.898438 165.734375 210.183594 162.160156 211.535156 C 157.015625 213.488281 162.578125 219.320312 164.878906 221.023438 Z M 164.878906 221.023438 "/>
<path style=" stroke:none;fill-rule:nonzero;fill:rgb(20.392157%,59.607843%,85.882353%);fill-opacity:1;" d="M 175.417969 228.097656 C 174.746094 228.933594 174.027344 230.042969 174.394531 231.015625 C 174.832031 231.898438 175.804688 232.375 176.769531 232.179688 C 177.699219 231.960938 178.570312 231.535156 179.316406 230.929688 C 181.132812 229.675781 184.863281 227.039062 182.484375 224.542969 C 180.101562 222.042969 176.84375 226.332031 175.417969 228.097656 Z M 175.417969 228.097656 "/>
<path style=" stroke:none;fill-rule:nonzero;fill:rgb(20.392157%,59.607843%,85.882353%);fill-opacity:1;" d="M 160.203125 192.835938 C 159.402344 192.886719 158.71875 193.4375 158.503906 194.214844 C 158.347656 195.121094 159.097656 195.90625 159.824219 196.460938 C 161.632812 197.859375 167.058594 201.613281 168.273438 197.988281 C 169.410156 194.566406 162.605469 192.574219 160.203125 192.835938 Z M 160.203125 192.835938 "/>
<path style=" stroke:none;fill-rule:nonzero;fill:rgb(20.392157%,59.607843%,85.882353%);fill-opacity:1;" d="M 170.207031 180.917969 C 169.089844 181.023438 167.972656 180.617188 166.855469 180.683594 C 165.734375 180.753906 164.480469 181.65625 164.734375 182.765625 C 164.988281 183.875 166.222656 184.117188 167.261719 184.175781 C 169.03125 184.289062 170.808594 184.167969 172.550781 183.816406 C 172.964844 183.777344 173.351562 183.582031 173.628906 183.269531 C 174.074219 182.601562 173.355469 181.707031 172.589844 181.472656 C 171.785156 181.367188 171 181.175781 170.234375 180.910156 Z M 170.207031 180.917969 "/>
<path style=" stroke:none;fill-rule:nonzero;fill:rgb(20.392157%,59.607843%,85.882353%);fill-opacity:1;" d="M 181.152344 188.625 C 182.277344 188.625 183.367188 188.179688 184.484375 188.167969 C 185.601562 188.160156 186.914062 188.984375 186.742188 190.113281 C 186.566406 191.242188 185.339844 191.5625 184.3125 191.6875 C 182.550781 191.921875 180.765625 191.921875 179.003906 191.6875 C 178.585938 191.679688 178.1875 191.507812 177.894531 191.210938 C 177.398438 190.578125 178.0625 189.636719 178.820312 189.34375 C 179.609375 189.195312 180.382812 188.957031 181.121094 188.636719 Z M 181.152344 188.625 "/>
<path style=" stroke:none;fill-rule:nonzero;fill:rgb(20.392157%,59.607843%,85.882353%);fill-opacity:1;" d="M 180.042969 271.460938 C 180.300781 271.191406 180.644531 271.023438 181.015625 270.984375 C 181.527344 271.042969 181.929688 271.445312 181.988281 271.957031 C 182.039062 272.4375 181.972656 272.921875 181.804688 273.375 C 181.042969 275.929688 172.480469 294.390625 170.519531 291.074219 C 169.351562 289.132812 172.210938 282.628906 173.054688 280.792969 C 174.671875 277.207031 177.058594 274.019531 180.042969 271.460938 Z M 180.042969 271.460938 "/>
<path style="fill:none;stroke-width:1;stroke-linecap:round;stroke-linejoin:round;stroke:rgb(14.901961%,19.607843%,21.960784%);stroke-opacity:1;stroke-miterlimit:4;" d="M 180.941358 191.679527 C 180.941358 191.679527 180.41088 187.069991 181.528099 186.68017 " transform="matrix(0.972,0,0,0.972,0,0)"/>
<path style=" stroke:none;fill-rule:nonzero;fill:rgb(20.392157%,59.607843%,85.882353%);fill-opacity:1;" d="M 174.960938 181.617188 C 175.503906 180.03125 176.457031 178.617188 177.71875 177.515625 C 179.070312 176.542969 181.230469 176.464844 182.210938 177.816406 C 183.308594 179.324219 182.210938 181.609375 180.53125 182.414062 C 178.847656 183.222656 176.875 182.980469 175.027344 182.714844 C 175.027344 182.445312 175.027344 182.171875 175.027344 181.898438 Z M 174.960938 181.617188 "/>
<path style="fill:none;stroke-width:1;stroke-linecap:round;stroke-linejoin:round;stroke:rgb(14.901961%,19.607843%,21.960784%);stroke-opacity:1;stroke-miterlimit:4;" d="M 53.851595 300.970132 L 53.851595 202.160494 " transform="matrix(0.972,0,0,0.972,0,0)"/>
<path style="fill:none;stroke-width:1;stroke-linecap:round;stroke-linejoin:round;stroke:rgb(14.901961%,19.607843%,21.960784%);stroke-opacity:1;stroke-miterlimit:4;" d="M 362.348894 300.970132 L 350.139853 300.970132 " transform="matrix(0.972,0,0,0.972,0,0)"/>
<path style="fill:none;stroke-width:1;stroke-linecap:round;stroke-linejoin:round;stroke:rgb(14.901961%,19.607843%,21.960784%);stroke-opacity:1;stroke-miterlimit:4;" d="M 458.100244 300.970132 L 433.228041 300.970132 " transform="matrix(0.972,0,0,0.972,0,0)"/>
<path style="fill:none;stroke-width:1;stroke-linecap:round;stroke-linejoin:round;stroke:rgb(14.901961%,19.607843%,21.960784%);stroke-opacity:1;stroke-miterlimit:4;" d="M 349.018615 150.860822 L 393.08851 150.860822 L 393.08851 108.880691 " transform="matrix(0.972,0,0,0.972,0,0)"/>
<path style="fill:none;stroke-width:1;stroke-linecap:round;stroke-linejoin:round;stroke:rgb(14.901961%,19.607843%,21.960784%);stroke-opacity:1;stroke-miterlimit:4;" d="M 92.158565 138.040927 L 138.981321 138.040927 L 138.981321 172.188465 L 190.301087 172.188465 " transform="matrix(0.972,0,0,0.972,0,0)"/>
<path style="fill:none;stroke-width:1;stroke-linecap:round;stroke-linejoin:round;stroke:rgb(14.901961%,19.607843%,21.960784%);stroke-opacity:1;stroke-miterlimit:4;" d="M 64.541538 253.689236 L 64.541538 178.228684 " transform="matrix(0.972,0,0,0.972,0,0)"/>
<path style="fill:none;stroke-width:1;stroke-linecap:round;stroke-linejoin:round;stroke:rgb(14.901961%,19.607843%,21.960784%);stroke-opacity:1;stroke-miterlimit:4;" d="M 85.459266 145.479681 L 85.459266 204.619985 " transform="matrix(0.972,0,0,0.972,0,0)"/>
<path style="fill:none;stroke-width:1;stroke-linecap:round;stroke-linejoin:round;stroke:rgb(14.901961%,19.607843%,21.960784%);stroke-opacity:1;stroke-miterlimit:4;" d="M 106.368956 145.479681 L 106.368956 197.759934 " transform="matrix(0.972,0,0,0.972,0,0)"/>
<path style="fill:none;stroke-width:1;stroke-linecap:round;stroke-linejoin:round;stroke:rgb(14.901961%,19.607843%,21.960784%);stroke-opacity:1;stroke-miterlimit:4;" d="M 127.278646 145.479681 L 127.278646 236.930941 " transform="matrix(0.972,0,0,0.972,0,0)"/>
<path style="fill:none;stroke-width:1;stroke-linecap:round;stroke-linejoin:round;stroke:rgb(14.901961%,19.607843%,21.960784%);stroke-opacity:1;stroke-miterlimit:4;" d="M 227.450649 132.511092 L 227.450649 72.378151 L 312.580376 72.378151 L 312.580376 132.511092 " transform="matrix(0.972,0,0,0.972,0,0)"/>
<path style="fill:none;stroke-width:1;stroke-linecap:round;stroke-linejoin:round;stroke:rgb(14.901961%,19.607843%,21.960784%);stroke-opacity:1;stroke-miterlimit:4;" d="M 233.691808 102.249711 L 233.691808 79.519515 L 249.429334 79.519515 " transform="matrix(0.972,0,0,0.972,0,0)"/>
<path style="fill:none;stroke-width:1;stroke-linecap:round;stroke-linejoin:round;stroke:rgb(14.901961%,19.607843%,21.960784%);stroke-opacity:1;stroke-miterlimit:4;" d="M 252.8895 102.249711 L 252.8895 79.519515 L 268.631044 79.519515 " transform="matrix(0.972,0,0,0.972,0,0)"/>
<path style="fill:none;stroke-width:1;stroke-linecap:round;stroke-linejoin:round;stroke:rgb(14.901961%,19.607843%,21.960784%);stroke-opacity:1;stroke-miterlimit:4;" d="M 272.09121 102.249711 L 272.09121 79.519515 L 287.828736 79.519515 " transform="matrix(0.972,0,0,0.972,0,0)"/>
<path style="fill:none;stroke-width:1;stroke-linecap:round;stroke-linejoin:round;stroke:rgb(14.901961%,19.607843%,21.960784%);stroke-opacity:1;stroke-miterlimit:4;" d="M 291.288902 102.249711 L 291.288902 79.519515 L 307.030446 79.519515 " transform="matrix(0.972,0,0,0.972,0,0)"/>
<path style="fill:none;stroke-width:1;stroke-linecap:round;stroke-linejoin:round;stroke:rgb(14.901961%,19.607843%,21.960784%);stroke-opacity:1;stroke-miterlimit:4;" d="M 233.691808 132.511092 L 233.691808 109.780896 L 249.429334 109.780896 " transform="matrix(0.972,0,0,0.972,0,0)"/>
<path style="fill:none;stroke-width:1;stroke-linecap:round;stroke-linejoin:round;stroke:rgb(14.901961%,19.607843%,21.960784%);stroke-opacity:1;stroke-miterlimit:4;" d="M 252.8895 132.511092 L 252.8895 109.780896 L 268.631044 109.780896 " transform="matrix(0.972,0,0,0.972,0,0)"/>
<path style="fill:none;stroke-width:1;stroke-linecap:round;stroke-linejoin:round;stroke:rgb(14.901961%,19.607843%,21.960784%);stroke-opacity:1;stroke-miterlimit:4;" d="M 272.09121 132.511092 L 272.09121 109.780896 L 287.828736 109.780896 " transform="matrix(0.972,0,0,0.972,0,0)"/>
<path style="fill:none;stroke-width:1;stroke-linecap:round;stroke-linejoin:round;stroke:rgb(14.901961%,19.607843%,21.960784%);stroke-opacity:1;stroke-miterlimit:4;" d="M 291.288902 132.511092 L 291.288902 109.780896 L 307.030446 109.780896 " transform="matrix(0.972,0,0,0.972,0,0)"/>
<path style="fill:none;stroke-width:1;stroke-linecap:round;stroke-linejoin:round;stroke:rgb(14.901961%,19.607843%,21.960784%);stroke-opacity:1;stroke-miterlimit:4;" d="M 399.908372 114.080986 L 399.908372 189.429012 " transform="matrix(0.972,0,0,0.972,0,0)"/>
<path style="fill:none;stroke-width:1;stroke-linecap:round;stroke-linejoin:round;stroke:rgb(14.901961%,19.607843%,21.960784%);stroke-opacity:1;stroke-miterlimit:4;" d="M 430.820795 295.448335 L 433.228041 295.448335 " transform="matrix(0.972,0,0,0.972,0,0)"/>
<path style="fill:none;stroke-width:1;stroke-linecap:round;stroke-linejoin:round;stroke:rgb(14.901961%,19.607843%,21.960784%);stroke-opacity:1;stroke-miterlimit:4;" d="M 418.438947 135.718075 L 418.438947 220.080215 " transform="matrix(0.972,0,0,0.972,0,0)"/>
<path style="fill:none;stroke-width:1;stroke-linecap:round;stroke-linejoin:round;stroke:rgb(14.901961%,19.607843%,21.960784%);stroke-opacity:1;stroke-miterlimit:4;" d="M 436.981578 273.911716 L 436.981578 295.448335 L 451.770673 295.448335 " transform="matrix(0.972,0,0,0.972,0,0)"/>
<path style="fill:none;stroke-width:1;stroke-linecap:round;stroke-linejoin:round;stroke:rgb(14.901961%,19.607843%,21.960784%);stroke-opacity:1;stroke-miterlimit:4;" d="M 436.981578 163.218557 L 436.981578 220.510224 " transform="matrix(0.972,0,0,0.972,0,0)"/>
<path style="fill:none;stroke-width:1;stroke-linecap:round;stroke-linejoin:round;stroke:rgb(14.901961%,19.607843%,21.960784%);stroke-opacity:1;stroke-miterlimit:4;" d="M 455.508134 206.689654 L 455.508134 295.448335 L 458.879887 295.448335 " transform="matrix(0.972,0,0,0.972,0,0)"/>
<path style="fill-rule:nonzero;fill:rgb(100%,100%,100%);fill-opacity:1;stroke-width:1;stroke-linecap:round;stroke-linejoin:round;stroke:rgb(14.901961%,19.607843%,21.960784%);stroke-opacity:1;stroke-miterlimit:4;" d="M 38.688754 302.778582 L 229.689108 302.778582 L 229.689108 426.838188 L 38.688754 426.838188 Z M 38.688754 302.778582 " transform="matrix(0.972,0,0,0.972,0,0)"/>
<path style="fill-rule:nonzero;fill:rgb(100%,100%,100%);fill-opacity:1;stroke-width:1;stroke-linecap:round;stroke-linejoin:round;stroke:rgb(14.901961%,19.607843%,21.960784%);stroke-opacity:1;stroke-miterlimit:4;" d="M 38.688754 302.778582 L 134.19094 364.808385 L 229.689108 302.778582 Z M 38.688754 302.778582 " transform="matrix(0.972,0,0,0.972,0,0)"/>
<path style="fill:none;stroke-width:1;stroke-linecap:round;stroke-linejoin:round;stroke:rgb(14.901961%,19.607843%,21.960784%);stroke-opacity:1;stroke-miterlimit:4;" d="M 105.480806 346.161265 L 38.688754 426.838188 " transform="matrix(0.972,0,0,0.972,0,0)"/>
<path style="fill:none;stroke-width:1;stroke-linecap:round;stroke-linejoin:round;stroke:rgb(14.901961%,19.607843%,21.960784%);stroke-opacity:1;stroke-miterlimit:4;" d="M 163.419496 346.161265 L 230.211548 426.838188 " transform="matrix(0.972,0,0,0.972,0,0)"/>
<path style=" stroke:none;fill-rule:nonzero;fill:rgb(20.392157%,59.607843%,85.882353%);fill-opacity:1;" d="M 322.605469 140.433594 L 279.449219 140.433594 C 276.917969 140.4375 274.589844 141.816406 273.367188 144.03125 C 271.207031 147.929688 267.101562 150.347656 262.644531 150.347656 C 258.1875 150.347656 254.082031 147.929688 251.921875 144.03125 C 250.710938 141.785156 248.363281 140.386719 245.808594 140.386719 L 202.699219 140.386719 C 197.722656 140.320312 193.636719 144.304688 193.574219 149.28125 L 193.574219 392.6875 C 193.644531 397.664062 197.726562 401.640625 202.699219 401.582031 L 322.605469 401.582031 C 327.582031 401.640625 331.667969 397.664062 331.742188 392.6875 L 331.742188 149.328125 C 331.675781 144.351562 327.585938 140.371094 322.605469 140.433594 Z M 322.605469 140.433594 "/>
<path style=" stroke:none;fill-rule:nonzero;fill:rgb(14.901961%,19.607843%,21.960784%);fill-opacity:1;" d="M 335.953125 146.636719 C 335.960938 143.324219 334.65625 140.144531 332.316406 137.800781 C 329.976562 135.453125 326.804688 134.136719 323.492188 134.136719 L 201.824219 134.136719 C 194.945312 134.128906 189.363281 139.707031 189.363281 146.585938 L 189.363281 402.40625 C 189.363281 409.285156 194.941406 414.859375 201.816406 414.859375 L 323.492188 414.859375 C 330.371094 414.859375 335.945312 409.285156 335.953125 402.40625 Z M 331.742188 392.6875 C 331.667969 397.664062 327.582031 401.640625 322.605469 401.582031 L 202.699219 401.582031 C 197.726562 401.640625 193.644531 397.664062 193.574219 392.6875 L 193.574219 149.328125 C 193.636719 144.351562 197.722656 140.371094 202.699219 140.433594 L 245.828125 140.433594 C 248.378906 140.433594 250.722656 141.832031 251.933594 144.078125 C 254.09375 147.976562 258.199219 150.394531 262.652344 150.394531 C 267.109375 150.394531 271.214844 147.976562 273.375 144.078125 C 274.59375 141.859375 276.925781 140.480469 279.460938 140.484375 L 322.617188 140.484375 C 327.59375 140.417969 331.679688 144.402344 331.742188 149.378906 Z M 331.742188 392.6875 "/>
<use xlink:href="#surface8" mask="url(#mask1)"/>
<use xlink:href="#surface11" mask="url(#mask2)"/>
<path style="fill-rule:nonzero;fill:rgb(100%,100%,100%);fill-opacity:1;stroke-width:1;stroke-linecap:round;stroke-linejoin:round;stroke:rgb(14.901961%,19.607843%,21.960784%);stroke-opacity:1;stroke-miterlimit:4;" d="M 292.651267 352.731964 C 292.775849 358.514982 290.557485 364.10108 286.506559 368.228363 C 282.451614 372.355646 276.905703 374.67046 271.118666 374.650367 C 258.969907 374.602141 249.075682 364.876704 248.81848 352.731964 C 248.697917 346.948945 250.916281 341.362847 254.967207 337.239583 C 259.022151 333.112301 264.568062 330.801505 270.35108 330.821599 C 282.49582 330.861786 292.394065 340.583205 292.651267 352.731964 Z M 292.651267 352.731964 " transform="matrix(0.972,0,0,0.972,0,0)"/>
<path style="fill-rule:nonzero;fill:rgb(20.392157%,59.607843%,85.882353%);fill-opacity:1;stroke-width:1;stroke-linecap:round;stroke-linejoin:round;stroke:rgb(14.901961%,19.607843%,21.960784%);stroke-opacity:1;stroke-miterlimit:4;" d="M 263.551312 369.088381 C 261.513792 368.33687 259.649081 367.1875 258.061664 365.708591 C 256.458173 364.169399 255.22039 362.29665 254.428691 360.218943 C 253.532504 357.892072 253.08642 355.416506 253.11857 352.920846 C 253.106514 350.794914 253.484279 348.681038 254.231771 346.691744 C 254.906925 344.851145 255.927694 343.155221 257.229778 341.688368 C 259.801794 338.879244 263.121303 336.8578 266.798483 335.869181 C 268.606932 335.382909 270.467625 335.137764 272.340374 335.141782 C 273.891622 335.133745 275.442869 335.318609 276.94991 335.688336 C 278.404707 336.046007 279.799222 336.624711 281.081211 337.400334 C 282.351145 338.163902 283.488458 339.124389 284.448945 340.249646 C 285.453639 341.463317 286.221226 342.853813 286.711516 344.348798 C 287.270126 346.056777 287.547422 347.845132 287.531346 349.641525 C 287.507234 353.109729 286.257395 356.461388 283.998843 359.101723 C 283.030318 360.198849 281.880948 361.131205 280.598958 361.850566 C 279.497814 362.481514 278.251993 362.827128 276.978041 362.851241 C 276.101948 362.863297 275.245949 362.586002 274.538645 362.059542 C 273.823302 361.529064 273.397312 360.693158 273.389275 359.80099 C 272.055041 361.826453 269.768358 363.02003 267.341017 362.95171 C 265.440136 363.036105 263.599537 362.256462 262.34166 360.829797 C 261.091821 359.379019 260.432742 357.514307 260.489005 355.60137 C 260.497042 354.02601 260.770319 352.462706 261.300797 350.979778 C 261.827257 349.484793 262.57073 348.074203 263.511124 346.800251 C 264.447499 345.546393 265.641075 344.50553 267.011478 343.75 C 268.377861 342.978395 269.929109 342.572499 271.50045 342.580536 C 272.593557 342.56848 273.674608 342.8297 274.639114 343.340085 C 275.579507 343.842432 276.339056 344.618056 276.821309 345.570505 L 277.018229 344.89937 C 277.351788 343.922807 278.412744 343.400367 279.389307 343.729906 C 279.570152 343.790188 279.742959 343.878601 279.899691 343.991127 C 280.2011 344.232253 280.369888 344.60198 280.349794 344.991802 C 280.349794 345.176665 280.321663 345.361529 280.261381 345.538355 L 277.018229 356.32073 C 276.732896 357.140561 276.548032 357.992541 276.471676 358.860597 C 276.411394 359.186118 276.515882 359.523695 276.757009 359.756784 C 276.994117 359.989873 277.331694 360.090342 277.661233 360.018004 C 278.806584 359.945666 279.879597 359.435282 280.65924 358.591339 C 281.740291 357.522344 282.572177 356.228299 283.090599 354.801633 C 283.709491 353.242348 284.030993 351.578575 284.030993 349.898727 C 284.043049 348.423836 283.826035 346.952964 283.392007 345.538355 C 283.02228 344.324685 282.439558 343.183353 281.671971 342.170621 C 280.940554 341.250322 280.056424 340.458623 279.059767 339.839731 C 278.06713 339.212802 276.978041 338.742605 275.840728 338.449235 C 274.671264 338.143808 273.46965 337.987076 272.259999 337.991094 C 270.728845 337.991094 269.20171 338.208108 267.730838 338.63008 C 266.211741 339.060089 264.769001 339.71113 263.438786 340.559092 C 262.100534 341.403035 260.890882 342.43586 259.841982 343.621399 C 258.760931 344.86722 257.916988 346.305941 257.358378 347.861208 C 256.731449 349.553112 256.417985 351.345486 256.430041 353.149916 C 256.397891 355.287905 256.783693 357.409819 257.571373 359.399113 C 258.246528 361.123167 259.315522 362.662359 260.689943 363.900141 C 262.016139 365.05353 263.551312 365.945698 265.211066 366.528421 C 266.959234 367.147312 268.803852 367.460777 270.660526 367.44872 C 272.641782 367.44872 274.615001 367.151331 276.511863 366.560571 C 276.700746 366.492252 276.897666 366.460102 277.098605 366.460102 C 277.480388 366.456083 277.842078 366.608796 278.09928 366.890111 C 278.356481 367.159369 278.497139 367.51704 278.489101 367.890786 C 278.541345 368.489583 278.139468 369.036137 277.548708 369.168756 C 275.189686 369.892136 272.738233 370.269901 270.270705 370.289995 C 267.975984 370.285976 265.701357 369.88008 263.551312 369.088381 Z M 271.809896 358.71994 C 272.798515 358.008616 273.529932 356.999904 273.899659 355.838477 L 275.989423 348.488137 L 275.848765 348.190747 C 275.720165 347.949621 275.563432 347.724569 275.378569 347.519612 C 275.129405 347.23026 274.856128 346.965021 274.558738 346.719875 C 274.184992 346.422486 273.763021 346.189397 273.308899 346.028646 C 272.127379 345.618731 270.829315 345.662937 269.679945 346.161265 C 269.048997 346.426505 268.470293 346.80427 267.971965 347.270448 C 267.449524 347.756719 266.987365 348.299254 266.589506 348.890014 C 266.191647 349.504887 265.858089 350.159947 265.588831 350.83912 C 265.307517 351.522312 265.090503 352.229617 264.941808 352.948978 C 264.789095 353.636188 264.712738 354.335455 264.708719 355.038741 C 264.700682 355.492863 264.728813 355.942966 264.789095 356.38905 C 264.83732 356.786908 264.921714 357.180748 265.050315 357.558513 C 265.158822 357.912166 265.319573 358.249743 265.520512 358.559189 C 265.701357 358.840503 265.930427 359.081629 266.199685 359.278549 C 266.485018 359.487526 266.80652 359.640239 267.148116 359.728652 C 267.549994 359.845197 267.963927 359.90146 268.38188 359.889403 C 269.631719 359.905478 270.853427 359.503601 271.850084 358.748071 Z M 271.809896 358.71994 " transform="matrix(0.972,0,0,0.972,0,0)"/>
<path style="fill-rule:nonzero;fill:rgb(100%,100%,100%);fill-opacity:1;stroke-width:1;stroke-linecap:round;stroke-linejoin:round;stroke:rgb(14.901961%,19.607843%,21.960784%);stroke-opacity:1;stroke-miterlimit:4;" d="M 292.160976 277.600952 C 292.281539 283.379951 290.063175 288.966049 286.012249 293.093332 C 281.957305 297.216596 276.411394 299.531411 270.628376 299.511317 C 258.483636 299.471129 248.585391 289.745692 248.328189 277.600952 C 248.203607 271.817933 250.417953 266.227816 254.472897 262.100534 C 258.523823 257.973251 264.073753 255.658436 269.86079 255.67853 C 282.009549 255.726755 291.903774 265.452193 292.160976 277.600952 Z M 292.160976 277.600952 " transform="matrix(0.972,0,0,0.972,0,0)"/>
<path style="fill-rule:nonzero;fill:rgb(20.392157%,59.607843%,85.882353%);fill-opacity:1;stroke-width:1;stroke-linecap:round;stroke-linejoin:round;stroke:rgb(14.901961%,19.607843%,21.960784%);stroke-opacity:1;stroke-miterlimit:4;" d="M 283.998843 275.599601 C 277.130755 271.098573 263.659819 271.098573 257.109214 275.599601 C 254.633648 276.065779 252.873425 278.272087 252.969875 280.79186 C 253.070345 283.701453 265.158822 283.701453 265.058353 280.79186 C 265.00209 279.574171 264.535912 278.412744 263.740194 277.488426 C 268.273373 276.511863 272.967303 276.511863 277.500482 277.488426 C 276.761028 278.428819 276.379244 279.598283 276.419432 280.79186 C 276.519901 283.701453 288.608378 283.701453 288.499871 280.79186 C 288.383327 278.227881 286.522634 276.077836 283.998843 275.599601 Z M 283.998843 275.599601 " transform="matrix(0.972,0,0,0.972,0,0)"/>
<path style="fill-rule:nonzero;fill:rgb(100%,100%,100%);fill-opacity:1;stroke-width:1;stroke-linecap:round;stroke-linejoin:round;stroke:rgb(14.901961%,19.607843%,21.960784%);stroke-opacity:1;stroke-miterlimit:4;" d="M 292.160976 204.619985 C 292.281539 210.009163 289.339796 214.831694 284.621753 218.038677 L 284.621753 231.131848 L 275.229874 221.731932 C 273.710777 222.00119 272.171586 222.133809 270.628376 222.12979 C 258.531861 222.12979 248.541184 214.289159 248.328189 204.619985 C 248.119213 194.95081 257.7482 187.118216 269.86079 187.118216 C 281.969361 187.118216 292.000225 194.999035 292.160976 204.619985 Z M 292.160976 204.619985 " transform="matrix(0.972,0,0,0.972,0,0)"/>
<path style="fill-rule:nonzero;fill:rgb(20.392157%,59.607843%,85.882353%);fill-opacity:1;stroke-width:1;stroke-linecap:round;stroke-linejoin:round;stroke:rgb(14.901961%,19.607843%,21.960784%);stroke-opacity:1;stroke-miterlimit:4;" d="M 260.910976 204.619985 C 260.914995 205.769354 260.223765 206.806199 259.162809 207.252283 C 258.101852 207.694348 256.880144 207.453221 256.064333 206.641429 C 255.25254 205.829636 255.007395 204.607928 255.445441 203.546971 C 255.883488 202.481996 256.920332 201.790766 258.069702 201.790766 C 259.633005 201.790766 260.902939 203.056681 260.910976 204.619985 Z M 260.910976 204.619985 " transform="matrix(0.972,0,0,0.972,0,0)"/>
<path style="fill-rule:nonzero;fill:rgb(20.392157%,59.607843%,85.882353%);fill-opacity:1;stroke-width:1;stroke-linecap:round;stroke-linejoin:round;stroke:rgb(14.901961%,19.607843%,21.960784%);stroke-opacity:1;stroke-miterlimit:4;" d="M 273.059735 204.619985 C 273.063754 205.769354 272.376543 206.806199 271.315586 207.252283 C 270.25463 207.694348 269.028903 207.453221 268.21711 206.641429 C 267.401299 205.829636 267.156154 204.607928 267.5942 203.546971 C 268.032247 202.481996 269.069091 201.790766 270.218461 201.790766 C 271.785783 201.790766 273.055716 203.056681 273.059735 204.619985 Z M 273.059735 204.619985 " transform="matrix(0.972,0,0,0.972,0,0)"/>
<path style="fill-rule:nonzero;fill:rgb(20.392157%,59.607843%,85.882353%);fill-opacity:1;stroke-width:1;stroke-linecap:round;stroke-linejoin:round;stroke:rgb(14.901961%,19.607843%,21.960784%);stroke-opacity:1;stroke-miterlimit:4;" d="M 285.208494 204.619985 C 285.212513 205.769354 284.525302 206.806199 283.464345 207.252283 C 282.403389 207.694348 281.181681 207.453221 280.365869 206.641429 C 279.550058 205.829636 279.304913 204.607928 279.746978 203.546971 C 280.185024 202.481996 281.221869 201.790766 282.371238 201.790766 C 283.934542 201.790766 285.204475 203.056681 285.208494 204.619985 Z M 285.208494 204.619985 " transform="matrix(0.972,0,0,0.972,0,0)"/>
<path style="fill-rule:nonzero;fill:rgb(20.392157%,59.607843%,85.882353%);fill-opacity:1;stroke-width:1;stroke-linecap:round;stroke-linejoin:round;stroke:rgb(14.901961%,19.607843%,21.960784%);stroke-opacity:1;stroke-miterlimit:4;" d="M 147.798515 244.530446 C 147.444862 245.189525 146.934478 245.752154 146.311568 246.170107 C 141.698013 249.851305 136.975952 253.37979 132.149402 256.759581 C 130.381141 258.001382 128.540541 259.279353 126.828543 260.66985 C 116.548515 267.549994 122.829861 269.229842 116.548515 283.789866 C 115.069605 287.270126 115.338863 304.321791 115.338863 304.321791 L 114.828479 304.321791 C 113.626865 303.132234 112.348894 302.023052 110.998585 300.998264 C 110.813722 300.873682 110.62082 300.761156 110.419882 300.660687 C 110.230999 300.564236 110.03006 300.499936 109.821084 300.471804 C 108.820409 300.411523 105.01061 300.869663 101.160622 300.620499 L 100.159947 300.540123 C 99.601337 300.479842 99.050765 300.411523 98.500193 300.311053 C 97.949621 300.210584 97.419142 300.098058 96.908758 299.96142 C 93.255691 298.787937 89.674961 297.405478 86.178627 295.818062 L 84.438497 295.07057 L 83.578479 294.700842 L 82.798836 294.359246 L 82.240226 294.11812 L 81.70171 293.88905 C 80.789448 293.511285 79.941487 293.161651 79.161844 292.888374 C 78.804173 292.759774 78.438465 292.651267 78.068737 292.558835 C 78.068737 293.378665 77.940136 294.218589 77.831629 295.038419 C 77.349376 298.948688 76.280382 302.561568 74.371463 303.039802 C 74.331276 303.051858 74.291088 303.051858 74.2509 303.039802 C 74.082112 303.071952 73.909304 303.088027 73.740516 303.088027 L 73.591821 303.088027 C 73.165831 303.07999 72.747878 303.003633 72.350019 302.858957 C 70.617927 302.119502 69.199299 300.793306 68.351337 299.109439 C 67.969554 298.402135 67.756559 297.614455 67.728427 296.8107 C 67.728427 293.901106 66.920653 276.728877 66.920653 271.72952 C 66.920653 266.730163 67.921328 257.981289 70.408951 254.730099 C 71.381494 253.351659 72.61124 252.174158 74.029868 251.261896 C 75.854392 249.73878 77.948174 248.573335 80.198688 247.821824 C 82.859118 246.949749 88.810925 244.731385 92.958301 243.160044 L 86.689011 245.579347 C 88.280446 248.300058 91.688368 252.580054 97.841114 253.130626 C 103.620113 253.620917 107.200842 248.388471 109.029385 244.570634 C 109.190136 244.630916 119.249132 242.721997 121.580022 242.830504 C 129.171489 243.160044 135.360404 239.048836 138.16149 237.421232 C 139.86947 236.396444 141.955215 236.211581 143.819927 236.918885 C 145.684639 237.622171 147.12336 239.141268 147.730195 241.03813 L 147.730195 241.130562 C 148.168242 242.215631 148.192355 243.425283 147.798515 244.530446 Z M 147.798515 244.530446 " transform="matrix(0.972,0,0,0.972,0,0)"/>
<path style="fill-rule:nonzero;fill:rgb(100%,100%,100%);fill-opacity:1;stroke-width:1;stroke-linecap:round;stroke-linejoin:round;stroke:rgb(14.901961%,19.607843%,21.960784%);stroke-opacity:1;stroke-miterlimit:4;" d="M 108.920878 244.630916 L 108.458719 244.470165 Z M 108.920878 244.630916 " transform="matrix(0.972,0,0,0.972,0,0)"/>
<path style="fill-rule:nonzero;fill:rgb(100%,100%,100%);fill-opacity:1;stroke-width:1;stroke-linecap:round;stroke-linejoin:round;stroke:rgb(14.901961%,19.607843%,21.960784%);stroke-opacity:1;stroke-miterlimit:4;" d="M 117.44872 308.718332 C 117.456758 308.75852 117.456758 308.798708 117.44872 308.838895 C 117.368345 309.035815 117.199556 309.18451 116.998618 309.240773 C 116.79366 309.301055 116.572627 309.260867 116.39982 309.140303 C 115.94168 308.879083 115.230356 307.211291 115.230356 307.211291 L 114.438657 306.391461 L 113.920235 305.840889 C 114.000611 306.041827 114.631559 307.568962 114.298 308.280285 C 114.281925 308.328511 114.257812 308.372717 114.221644 308.408886 C 113.771541 309.007684 113.068255 309.361336 112.320763 309.361336 C 111.890754 309.361336 110.628858 309.510031 109.531732 309.57835 L 109.411169 309.57835 C 109.077611 309.598444 108.744052 309.598444 108.410494 309.57835 C 107.522344 309.465824 106.666345 309.176472 105.890721 308.730388 C 104.130498 308.473187 102.398405 308.059253 100.71052 307.500643 L 100.409111 307.339892 L 100.139853 307.179141 C 99.963027 307.074653 99.798257 306.946052 99.649563 306.801376 C 99.038709 306.290992 98.524306 305.684156 98.118409 305.000965 C 98.118409 305.000965 94.059446 304.828157 88.609986 304.410204 C 86.608636 304.26151 84.450553 304.068609 82.208076 303.851595 C 78.768004 303.501961 75.930748 303.518036 73.700328 303.208591 L 73.539577 303.208591 C 73.10153 303.148309 72.691615 303.071952 72.301794 302.97952 C 70.356707 302.601755 68.805459 301.14294 68.299093 299.230003 C 68.170493 298.787937 68.061986 298.333816 67.98161 297.879694 L 69.72174 294.881687 C 70.625965 294.154289 71.638696 293.567548 72.719747 293.141557 C 74.399595 292.438272 76.252251 292.265464 78.028549 292.651267 C 78.398277 292.73968 78.763985 292.852206 79.121656 292.980806 C 79.901299 293.278196 80.749261 293.631848 81.661523 293.981481 L 82.208076 294.210552 L 82.770705 294.451678 L 83.550347 294.789255 C 87.999132 296.629855 93.311953 299.000932 96.860532 300.001608 C 97.925508 300.278903 99.014596 300.471804 100.111722 300.580311 L 101.108378 300.660687 C 104.958365 300.909851 108.760127 300.45171 109.76884 300.511992 C 110.781572 300.568255 113.2491 302.919239 114.828479 304.370017 C 115.258488 304.771894 115.640271 305.101434 115.901492 305.298354 L 116.018036 305.398823 L 116.110468 305.479199 C 116.681134 306.06594 117.083012 306.801376 117.271894 307.601112 C 117.348251 307.866352 117.400495 308.143647 117.428627 308.420943 C 117.44872 308.517393 117.456758 308.617863 117.44872 308.718332 Z M 117.44872 308.718332 " transform="matrix(0.972,0,0,0.972,0,0)"/>
<path style="fill-rule:nonzero;fill:rgb(100%,100%,100%);fill-opacity:1;stroke-width:1;stroke-linecap:round;stroke-linejoin:round;stroke:rgb(14.901961%,19.607843%,21.960784%);stroke-opacity:1;stroke-miterlimit:4;" d="M 117.44872 308.718332 C 117.456758 308.75852 117.456758 308.798708 117.44872 308.838895 C 117.364326 309.035815 117.199556 309.180491 116.994599 309.236754 C 116.789641 309.293017 116.572627 309.252829 116.39982 309.128247 C 115.905511 308.557581 115.511671 307.902521 115.230356 307.199235 L 114.438657 306.391461 L 113.920235 305.848926 C 113.988555 306.009677 114.639596 307.568962 114.310057 308.288323 C 114.293981 308.340567 114.26585 308.384774 114.229681 308.420943 C 114.117155 308.565619 113.992573 308.702257 113.851916 308.818801 C 113.417888 309.164416 112.883391 309.357317 112.3288 309.361336 C 111.890754 309.361336 110.640914 309.501993 109.551826 309.57835 L 109.411169 309.57835 C 109.077611 309.598444 108.744052 309.598444 108.410494 309.57835 C 107.526363 309.461806 106.674383 309.176472 105.898759 308.738426 C 104.142554 308.477206 102.406443 308.063272 100.718557 307.500643 L 100.429205 307.359986 L 100.159947 307.199235 C 99.98714 307.086709 99.82237 306.958108 99.669657 306.82147 C 99.050765 306.307067 98.528324 305.692194 98.118409 305.000965 C 98.118409 305.000965 94.180009 304.828157 88.839056 304.418242 C 86.841725 304.269547 84.530928 304.068609 82.208076 303.839538 C 79.049318 303.530093 76.441133 303.44168 74.331276 303.108121 L 73.680234 302.991577 L 72.928723 302.818769 C 72.755916 301.593043 72.884516 300.347222 73.29845 299.181777 C 74.08613 297.188465 75.721772 295.653292 77.759291 294.998232 C 79.009131 294.540091 80.287101 294.170364 81.589185 293.88905 L 82.131719 294.11812 L 82.690329 294.359246 L 83.469972 294.700842 C 87.999132 296.649949 93.251672 299.00897 96.808288 299.981514 C 97.877283 300.258809 98.962352 300.45171 100.059478 300.548161 L 101.060153 300.628537 C 104.91014 300.889757 108.711902 300.431617 109.720615 300.491898 C 110.729327 300.548161 113.188818 302.891107 114.719972 304.341885 C 115.065586 304.671425 115.431295 304.984889 115.80906 305.27826 L 115.929623 305.370692 L 116.018036 305.451067 C 116.604778 306.029771 117.006655 306.765207 117.179462 307.568962 C 117.259838 307.83822 117.312082 308.111497 117.340213 308.388792 C 117.392458 308.493281 117.428627 308.605806 117.44872 308.718332 Z M 117.44872 308.718332 " transform="matrix(0.972,0,0,0.972,0,0)"/>
<path style="fill-rule:nonzero;fill:rgb(100%,100%,100%);fill-opacity:1;stroke-width:1;stroke-linecap:round;stroke-linejoin:round;stroke:rgb(14.901961%,19.607843%,21.960784%);stroke-opacity:1;stroke-miterlimit:4;" d="M 105.480806 306.061921 C 105.480806 306.061921 107.751415 307.239423 108.65162 307.649338 C 109.551826 308.059253 109.471451 309.71097 109.471451 309.71097 " transform="matrix(0.972,0,0,0.972,0,0)"/>
<path style="fill-rule:nonzero;fill:rgb(100%,100%,100%);fill-opacity:1;stroke-width:1;stroke-linecap:round;stroke-linejoin:round;stroke:rgb(14.901961%,19.607843%,21.960784%);stroke-opacity:1;stroke-miterlimit:4;" d="M 107.908147 304.45843 C 109.338831 305.479199 110.713252 306.572306 112.031411 307.729713 C 112.421232 308.191872 112.517683 308.834877 112.280575 309.389468 " transform="matrix(0.972,0,0,0.972,0,0)"/>
<path style="fill-rule:nonzero;fill:rgb(100%,100%,100%);fill-opacity:1;stroke-width:1;stroke-linecap:round;stroke-linejoin:round;stroke:rgb(14.901961%,19.607843%,21.960784%);stroke-opacity:1;stroke-miterlimit:4;" d="M 113.888085 305.828832 C 112.706565 304.562918 111.456726 303.361304 110.138567 302.228009 " transform="matrix(0.972,0,0,0.972,0,0)"/>
<path style="fill-rule:nonzero;fill:rgb(100%,100%,100%);fill-opacity:1;stroke-width:1;stroke-linecap:round;stroke-linejoin:round;stroke:rgb(14.901961%,19.607843%,21.960784%);stroke-opacity:1;stroke-miterlimit:4;" d="M 108.908822 244.65101 C 107.100373 248.460809 103.511606 253.649048 97.728588 253.198945 C 91.607993 252.680523 88.171939 248.368377 86.580504 245.639628 C 88.778774 244.799704 91.009195 243.939686 92.841757 243.220325 C 92.841757 241.359632 92.781475 239.129212 92.580536 236.918885 C 92.580536 236.440651 92.480067 235.91821 92.431842 235.468107 C 92.379597 235.018004 92.319316 234.700521 92.259034 234.330793 L 103.889371 234.330793 C 103.889371 234.330793 103.821052 234.788934 103.72862 235.560539 C 103.660301 236.251768 103.571888 237.168049 103.49955 238.208912 C 103.411137 239.591371 103.350855 241.210938 103.391043 242.738072 C 103.949653 242.930974 104.520319 243.13995 105.090985 243.360983 L 106.188111 243.738747 C 106.630176 243.899498 107.060185 244.040156 107.518326 244.18885 L 108.519001 244.490258 C 108.65162 244.534465 108.78424 244.586709 108.908822 244.65101 Z M 108.908822 244.65101 " transform="matrix(0.972,0,0,0.972,0,0)"/>
<path style=" stroke:none;fill-rule:nonzero;fill:rgb(14.901961%,19.607843%,21.960784%);fill-opacity:1;" d="M 89.84375 228.839844 C 89.84375 228.839844 91.953125 234.320312 95.011719 235.253906 C 98.074219 236.1875 100.84375 228.964844 100.84375 228.964844 C 100.84375 228.964844 96.53125 233.570312 94.925781 232.851562 C 93.320312 232.132812 89.863281 228.875 89.863281 228.875 "/>
<path style="fill-rule:nonzero;fill:rgb(14.901961%,19.607843%,21.960784%);fill-opacity:1;stroke-width:1;stroke-linecap:round;stroke-linejoin:round;stroke:rgb(14.901961%,19.607843%,21.960784%);stroke-opacity:1;stroke-miterlimit:4;" d="M 90.559092 204.278389 C 87.621367 206.926762 85.290477 210.177951 83.731192 213.810925 C 82.300508 216.808931 81.090856 220.26106 82.192001 223.399724 C 82.847061 224.959008 83.779417 226.389693 84.940844 227.619438 C 87.098926 230.211548 90.129083 237.441326 92.291184 240.029417 C 92.431842 235.419882 88.569798 227.969072 88.979713 224.09899 C 89.478041 221.109021 90.458623 218.22354 91.889307 215.551055 C 93.344104 212.046682 95.249003 208.743248 97.551762 205.729167 C 98.861883 204.149788 103.069541 201.340664 98.821695 200.999068 C 96.000514 200.769997 92.689043 202.530221 90.559092 204.278389 Z M 90.559092 204.278389 " transform="matrix(0.972,0,0,0.972,0,0)"/>
<path style="fill-rule:nonzero;fill:rgb(100%,100%,100%);fill-opacity:1;stroke-width:1;stroke-linecap:round;stroke-linejoin:round;stroke:rgb(14.901961%,19.607843%,21.960784%);stroke-opacity:1;stroke-miterlimit:4;" d="M 87.838381 219.999839 C 87.838381 219.999839 86.351434 217.11034 84.780093 219.851145 C 83.650817 221.848476 85.278421 224.999196 85.981707 226.16866 C 86.451903 226.847833 87.247621 227.225598 88.07147 227.169335 Z M 87.838381 219.999839 " transform="matrix(0.972,0,0,0.972,0,0)"/>
<path style="fill-rule:nonzero;fill:rgb(100%,100%,100%);fill-opacity:1;stroke-width:1;stroke-linecap:round;stroke-linejoin:round;stroke:rgb(14.901961%,19.607843%,21.960784%);stroke-opacity:1;stroke-miterlimit:4;" d="M 107.421875 230.440619 C 106.465406 232.329443 105.219586 234.057517 103.72862 235.560539 L 102.828414 236.488876 C 100.97174 238.329475 98.958333 239.788291 97.640175 239.490901 C 96.490805 239.261831 94.991802 238.080311 93.52093 236.569252 C 93.151202 236.199524 92.789513 235.801665 92.431842 235.399788 C 90.82835 233.647602 89.453929 231.702514 88.340728 229.608732 C 88.031282 228.825071 87.830343 228.001222 87.749968 227.161298 C 87.496785 224.653582 87.412391 222.137828 87.488747 219.618056 C 87.488747 218.729906 87.488747 218.018583 87.488747 217.620724 C 87.488747 215.880594 94.01122 209.828318 94.01122 209.828318 C 94.184028 209.764017 94.37291 209.743924 94.561793 209.768036 C 95.683031 209.972994 96.764082 210.358796 97.760738 210.909369 C 101.711195 212.830343 107.220936 216.640143 107.618795 218.090921 C 108.229649 220.200778 108.000579 228.559832 107.421875 230.440619 Z M 107.421875 230.440619 " transform="matrix(0.972,0,0,0.972,0,0)"/>
<path style=" stroke:none;fill-rule:nonzero;fill:rgb(14.901961%,19.607843%,21.960784%);fill-opacity:1;" d="M 91.824219 216.191406 C 91.824219 216.871094 91.570312 217.425781 91.289062 217.425781 C 91.007812 217.425781 90.726562 216.890625 90.726562 216.191406 C 90.726562 215.492188 90.980469 214.9375 91.289062 214.9375 C 91.601562 214.9375 91.824219 215.511719 91.824219 216.191406 Z M 91.824219 216.191406 "/>
<path style=" stroke:none;fill-rule:nonzero;fill:rgb(14.901961%,19.607843%,21.960784%);fill-opacity:1;" d="M 99.066406 214.949219 C 99.378906 214.949219 99.628906 215.503906 99.628906 216.191406 C 99.628906 216.882812 99.378906 217.425781 99.066406 217.425781 C 98.753906 217.425781 98.503906 216.871094 98.503906 216.191406 C 98.503906 215.511719 98.753906 214.949219 99.066406 214.949219 Z M 99.066406 214.949219 "/>
<path style="fill:none;stroke-width:1;stroke-linecap:round;stroke-linejoin:round;stroke:rgb(14.901961%,19.607843%,21.960784%);stroke-opacity:1;stroke-miterlimit:4;" d="M 90.751993 219.268422 C 90.751993 219.268422 91.74865 217.271091 95.289191 217.881944 " transform="matrix(0.972,0,0,0.972,0,0)"/>
<path style="fill:none;stroke-width:1;stroke-linecap:round;stroke-linejoin:round;stroke:rgb(14.901961%,19.607843%,21.960784%);stroke-opacity:1;stroke-miterlimit:4;" d="M 105.211548 219.268422 C 105.211548 219.268422 104.210873 217.271091 100.670332 217.881944 " transform="matrix(0.972,0,0,0.972,0,0)"/>
<path style="fill:none;stroke-width:1;stroke-linecap:round;stroke-linejoin:round;stroke:rgb(14.901961%,19.607843%,21.960784%);stroke-opacity:1;stroke-miterlimit:4;" d="M 98.660944 227.309992 C 99.400399 227.265786 100.01929 226.739326 100.188079 226.019965 C 100.188079 226.019965 98.251029 223.021959 98.841789 220.080215 " transform="matrix(0.972,0,0,0.972,0,0)"/>
<path style="fill:none;stroke-width:1;stroke-linecap:round;stroke-linejoin:round;stroke:rgb(100%,100%,100%);stroke-opacity:1;stroke-miterlimit:4;" d="M 86.580504 212.999132 C 85.77273 214.092239 85.165895 215.317966 84.780093 216.620049 " transform="matrix(0.972,0,0,0.972,0,0)"/>
<path style="fill:none;stroke-width:1;stroke-linecap:round;stroke-linejoin:round;stroke:rgb(100%,100%,100%);stroke-opacity:1;stroke-miterlimit:4;" d="M 94.939558 205.001768 C 94.939558 205.001768 93.830376 206.838349 88.939525 210.591885 C 88.626061 210.816937 88.324653 211.066101 88.03932 211.33134 " transform="matrix(0.972,0,0,0.972,0,0)"/>
<path style="fill-rule:nonzero;fill:rgb(14.901961%,19.607843%,21.960784%);fill-opacity:1;stroke-width:1;stroke-linecap:round;stroke-linejoin:round;stroke:rgb(14.901961%,19.607843%,21.960784%);stroke-opacity:1;stroke-miterlimit:4;" d="M 79.258295 263.631687 C 78.595197 273.136092 77.92808 282.648534 77.260963 292.169014 L 77.260963 291.441615 " transform="matrix(0.972,0,0,0.972,0,0)"/>
<path style="fill-rule:nonzero;fill:rgb(100%,100%,100%);fill-opacity:1;stroke-width:1;stroke-linecap:round;stroke-linejoin:round;stroke:rgb(14.901961%,19.607843%,21.960784%);stroke-opacity:1;stroke-miterlimit:4;" d="M 142.42943 232.24103 C 144.266011 231.521669 146.33568 231.762796 147.959266 232.880015 C 149.55472 234.009291 150.716146 235.648952 151.250643 237.529739 C 151.88561 239.402488 151.825328 241.440008 151.069798 243.268551 C 150.274081 245.105131 148.533951 246.35497 146.540638 246.51974 C 145.081822 246.499646 143.671232 245.989262 142.541956 245.068962 C 138.800476 242.271894 136.931745 234.608089 142.42943 232.24103 Z M 142.42943 232.24103 " transform="matrix(0.972,0,0,0.972,0,0)"/>
<path style="fill-rule:nonzero;fill:rgb(100%,100%,100%);fill-opacity:1;stroke-width:1;stroke-linecap:round;stroke-linejoin:round;stroke:rgb(14.901961%,19.607843%,21.960784%);stroke-opacity:1;stroke-miterlimit:4;" d="M 150.708108 200.311857 C 150.708108 200.428401 150.708108 201.2201 150.780446 201.360757 C 151.13008 202.899949 151.869534 206.749936 150.000804 207.529578 C 150.708108 210.061407 152.448238 226.590631 152.219168 235.018004 C 152.158886 237.541795 151.72084 240.531764 149.458269 241.608796 C 145.64847 243.421264 142.031572 239.008648 142.461581 235.560539 C 143.128697 230.850534 142.899627 226.048097 143.458237 221.289866 C 144.069091 216.350791 145.190329 211.291152 143.960584 206.460584 C 143.659176 206.131044 141.738201 202.321245 141.111272 201.268326 C 140.825939 200.822242 140.604906 200.33597 140.448174 199.829604 C 140.203029 198.105549 140.082465 196.3614 140.090503 194.621271 C 140.661169 193.54022 141.400624 194.540895 141.790445 195.2482 C 142.107928 196.116255 142.216435 197.044592 142.111947 197.960873 C 142.071759 198.185925 142.103909 198.414995 142.20036 198.619952 C 142.369149 198.861079 142.658501 198.98968 142.951871 198.961548 C 144.181617 198.780703 144.129372 197.751897 144.109279 196.960198 C 144.109279 194.311825 144.109279 191.659433 144.109279 189.031154 C 144.109279 188.589088 144.249936 187.399531 144.671907 187.359343 C 145.08986 187.319155 145.720808 187.660751 145.781089 189.071341 C 145.849408 190.658758 145.849408 195.561664 145.849408 195.561664 C 145.929784 195.64204 146.046328 195.67419 146.158854 195.650077 C 146.259324 195.650077 146.299511 195.469232 146.339699 195.368763 C 146.930459 192.909272 147.529257 190.449781 148.120017 187.990291 C 148.188336 187.700939 148.618345 187.098122 148.931809 187.098122 C 149.671264 187.098122 149.691358 187.95814 149.731546 188.211323 C 149.988747 189.529482 148.140111 194.970904 147.830665 196.208687 C 147.830665 196.42972 147.830665 196.759259 148.059735 196.698978 L 150.961291 190.851659 C 151.230549 190.156411 151.813272 189.629951 152.528614 189.429012 C 152.576839 189.412937 152.633102 189.412937 152.681327 189.429012 C 152.733571 189.461163 152.773759 189.505369 152.80189 189.561632 C 153.079186 190.05996 152.80189 190.75119 152.641139 191.301762 C 152.480388 191.848315 150.310249 195.891204 149.538645 197.518808 C 149.430138 197.751897 149.249293 198.270319 149.470325 198.519483 C 149.691358 198.768647 150.089217 198.290413 150.249968 197.960873 C 150.740258 196.960198 151.198399 196.019805 151.648502 195.039223 C 151.789159 194.749871 151.998135 194.339956 152.331694 194.408275 C 154.2808 194.830247 151.511863 198.921361 150.708108 200.311857 Z M 150.708108 200.311857 " transform="matrix(0.972,0,0,0.972,0,0)"/>
<path style="fill-rule:nonzero;fill:rgb(100%,100%,100%);fill-opacity:1;stroke-width:1;stroke-linecap:round;stroke-linejoin:round;stroke:rgb(14.901961%,19.607843%,21.960784%);stroke-opacity:1;stroke-miterlimit:4;" d="M 145.330986 199.451839 C 146.33568 200.247557 147.211773 201.200006 147.919078 202.269001 C 148.626382 203.358089 148.843396 204.692323 148.521894 205.950199 C 148.46965 206.11095 148.409369 206.267683 148.328993 206.420396 " transform="matrix(0.972,0,0,0.972,0,0)"/>
<path style="fill:none;stroke-width:1;stroke-linecap:round;stroke-linejoin:round;stroke:rgb(14.901961%,19.607843%,21.960784%);stroke-opacity:1;stroke-miterlimit:4;" d="M 117.159369 261.919689 C 118.216307 264.053659 118.931649 266.344361 119.269226 268.699363 C 119.558578 271.058385 119.65101 272.91104 118.03948 279.538002 " transform="matrix(0.972,0,0,0.972,0,0)"/>
<path style="fill-rule:nonzero;fill:rgb(14.901961%,19.607843%,21.960784%);fill-opacity:1;stroke-width:1;stroke-linecap:round;stroke-linejoin:round;stroke:rgb(14.901961%,19.607843%,21.960784%);stroke-opacity:1;stroke-miterlimit:4;" d="M 94.589924 208.329315 C 94.453286 208.73923 94.417117 209.173257 94.489455 209.599248 C 94.678337 210.133745 95.027971 210.599923 95.49013 210.929462 C 98.685057 213.730549 102.261767 216.065458 106.111754 217.869888 C 107.10841 218.131109 107.747396 219.11169 107.578607 220.12844 L 107.578607 227.860565 C 107.630851 228.656282 107.550476 229.456019 107.349537 230.231642 C 106.790927 232.028035 105.549126 233.478813 104.64892 235.138567 C 103.736658 236.713927 103.27048 238.51032 103.310667 240.330826 C 103.061503 238.421907 109.740709 234.720615 111.549158 227.201485 C 111.798322 226.140529 116.998618 219.831051 113.880048 212.420428 C 110.878022 205.311214 106.159979 202.248907 104.568544 201.87918 C 102.38233 201.240194 100.015271 201.694316 98.218879 203.100887 C 96.470711 204.402971 95.196759 206.239551 94.589924 208.329315 Z M 94.589924 208.329315 " transform="matrix(0.972,0,0,0.972,0,0)"/>
<path style="fill:none;stroke-width:1;stroke-linecap:round;stroke-linejoin:round;stroke:rgb(14.901961%,19.607843%,21.960784%);stroke-opacity:1;stroke-miterlimit:4;" d="M 101.140529 229.998553 C 100.569862 230.119117 99.991159 230.231642 99.408436 230.299961 C 97.411105 230.549126 95.269097 230.23968 93.958976 228.780864 C 94.059446 230.090985 94.959651 235.038098 97.648212 235.178755 C 100.340792 235.319412 101.140529 229.998553 101.140529 229.998553 Z M 101.140529 229.998553 " transform="matrix(0.972,0,0,0.972,0,0)"/>
<path style="fill:none;stroke-width:1;stroke-linecap:round;stroke-linejoin:round;stroke:rgb(100%,100%,100%);stroke-opacity:1;stroke-miterlimit:4;" d="M 98.540381 205.311214 C 99.693769 207.927437 101.53035 210.185989 103.86124 211.849762 C 105.549126 213.059414 107.478138 213.931488 109.029385 215.309928 C 111.030736 217.138471 112.340856 220.040027 111.569252 222.668306 " transform="matrix(0.972,0,0,0.972,0,0)"/>
<path style="fill:none;stroke-width:1;stroke-linecap:round;stroke-linejoin:round;stroke:rgb(14.901961%,19.607843%,21.960784%);stroke-opacity:1;stroke-miterlimit:4;" d="M 119.438014 245.711966 C 117.513021 247.255176 116.243088 249.47354 115.889435 251.920975 C 115.543821 254.030832 115.805041 256.200971 116.640947 258.170171 " transform="matrix(0.972,0,0,0.972,0,0)"/>
<path style="fill-rule:nonzero;fill:rgb(14.901961%,19.607843%,21.960784%);fill-opacity:1;stroke-width:1;stroke-linecap:round;stroke-linejoin:round;stroke:rgb(14.901961%,19.607843%,21.960784%);stroke-opacity:1;stroke-miterlimit:4;" d="M 82.192001 262.209041 C 82.03125 264.829282 80.399627 267.099891 78.820248 269.209748 " transform="matrix(0.972,0,0,0.972,0,0)"/>
<path style="fill:none;stroke-width:1;stroke-linecap:round;stroke-linejoin:round;stroke:rgb(14.901961%,19.607843%,21.960784%);stroke-opacity:1;stroke-miterlimit:4;" d="M 78.28977 282.238619 C 79.89728 284.92718 82.561728 286.816004 85.628054 287.438915 " transform="matrix(0.972,0,0,0.972,0,0)"/>
<path style="fill:none;stroke-width:1;stroke-linecap:round;stroke-linejoin:round;stroke:rgb(14.901961%,19.607843%,21.960784%);stroke-opacity:1;stroke-miterlimit:4;" d="M 116.548515 283.801923 C 116.548515 283.801923 113.859954 287.800604 104.721258 288.640529 " transform="matrix(0.972,0,0,0.972,0,0)"/>
<path style=" stroke:none;fill-rule:nonzero;fill:rgb(100%,100%,100%);fill-opacity:1;" d="M 373.539062 241.785156 C 373.539062 241.785156 339.664062 252.28125 333.289062 243.992188 L 334.152344 201.699219 L 339.296875 201.699219 L 345.34375 231.492188 L 373.101562 226.40625 C 373.101562 226.40625 376.660156 237.429688 373.539062 241.785156 Z M 373.539062 241.785156 "/>
<g clip-path="url(#clip4)" clip-rule="nonzero">
<g clip-path="url(#clip5)" clip-rule="nonzero">
<path style=" stroke:none;fill-rule:nonzero;fill:rgb(20.392157%,59.607843%,85.882353%);fill-opacity:1;" d="M 359.269531 243.261719 C 357.328125 244.035156 355.472656 245.011719 353.738281 246.179688 C 356.035156 246.90625 358.484375 245.984375 360.777344 245.253906 C 363.808594 244.324219 366.894531 243.597656 370.019531 243.078125 C 370.167969 242.210938 369.050781 240.238281 368.613281 239.472656 C 367.816406 238.128906 367.640625 238.011719 366.296875 238.675781 C 363.859375 239.898438 361.777344 242.027344 359.269531 243.261719 Z M 359.269531 243.261719 "/>
</g>
</g>
<path style="fill:none;stroke-width:1;stroke-linecap:round;stroke-linejoin:round;stroke:rgb(14.901961%,19.607843%,21.960784%);stroke-opacity:1;stroke-miterlimit:4;" d="M 384.299447 248.750161 C 384.299447 248.750161 349.448624 259.548611 342.889982 251.020769 L 343.778131 207.509484 L 349.070859 207.509484 L 355.291924 238.160687 L 383.849344 232.928241 C 383.849344 232.928241 387.510449 244.269226 384.299447 248.750161 Z M 384.299447 248.750161 " transform="matrix(0.972,0,0,0.972,0,0)"/>
<path style=" stroke:none;fill-rule:nonzero;fill:rgb(100%,100%,100%);fill-opacity:1;" d="M 370.214844 242.894531 L 376.164062 279.519531 C 376.007812 303.253906 387.332031 299.6875 395.195312 299.617188 C 404.285156 299.542969 418.078125 290.53125 411.3125 276.503906 L 413.917969 225.738281 L 398.082031 224.53125 C 392.863281 224.125 371.480469 224.792969 369.777344 227.527344 C 365.363281 234.613281 370.214844 242.894531 370.214844 242.894531 Z M 370.214844 242.894531 "/>
<g clip-path="url(#clip6)" clip-rule="nonzero">
<g clip-path="url(#clip7)" clip-rule="nonzero">
<path style=" stroke:none;fill-rule:nonzero;fill:rgb(20.392157%,59.607843%,85.882353%);fill-opacity:1;" d="M 371.148438 245.914062 C 374.679688 259.28125 383.152344 270.808594 394.855469 278.167969 C 393.589844 277.964844 392.351562 277.609375 391.171875 277.109375 C 389.984375 276.597656 388.65625 276.523438 387.417969 276.902344 C 386.816406 277.121094 386.324219 277.570312 386.054688 278.148438 C 385.78125 278.726562 385.753906 279.390625 385.972656 279.996094 C 386.253906 280.449219 386.640625 280.832031 387.097656 281.113281 C 389.027344 282.46875 391.140625 283.546875 393.367188 284.320312 C 391.414062 284.117188 389.4375 284.269531 387.535156 284.765625 C 387.1875 286.457031 389.070312 287.683594 390.558594 288.507812 C 392.933594 289.90625 394.964844 291.816406 396.507812 294.097656 C 391.289062 294.109375 386.074219 294.40625 380.886719 294.992188 C 380.203125 295.144531 379.488281 295.078125 378.847656 294.796875 C 378.175781 294.296875 377.722656 293.554688 377.582031 292.726562 C 376.425781 288.683594 375.753906 284.515625 375.582031 280.316406 C 375.484375 277.953125 375.582031 275.570312 375.269531 273.230469 C 375.019531 271.382812 374.675781 269.550781 374.238281 267.738281 C 372.730469 260.726562 371.574219 253.660156 370.769531 246.539062 C 370.410156 246.566406 371.148438 245.914062 371.148438 245.914062 Z M 371.148438 245.914062 "/>
</g>
</g>
<g clip-path="url(#clip8)" clip-rule="nonzero">
<g clip-path="url(#clip9)" clip-rule="nonzero">
<path style=" stroke:none;fill-rule:nonzero;fill:rgb(20.392157%,59.607843%,85.882353%);fill-opacity:1;" d="M 411.300781 243 C 409.992188 242.578125 408.769531 241.921875 407.695312 241.054688 C 407.996094 242.515625 410.175781 245.03125 411.449219 245.808594 C 411.710938 245.972656 412.089844 246.109375 412.324219 245.886719 C 412.554688 245.664062 412.710938 245.089844 412.945312 244.914062 Z M 411.300781 243 "/>
</g>
</g>
<path style="fill:none;stroke-width:1;stroke-linecap:round;stroke-linejoin:round;stroke:rgb(14.901961%,19.607843%,21.960784%);stroke-opacity:1;stroke-miterlimit:4;" d="M 380.879469 249.891493 L 387.000064 287.571534 C 386.839313 311.989615 398.489744 308.320473 406.57954 308.248135 C 415.931231 308.171779 430.121528 298.900463 423.161008 284.469039 L 425.841532 232.24103 L 409.549415 230.999228 C 404.180331 230.581276 382.181552 231.268486 380.429366 234.081629 C 375.888149 241.371689 380.879469 249.891493 380.879469 249.891493 Z M 380.879469 249.891493 " transform="matrix(0.972,0,0,0.972,0,0)"/>
<path style="fill-rule:nonzero;fill:rgb(20.392157%,59.607843%,85.882353%);fill-opacity:1;stroke-width:1;stroke-linecap:round;stroke-linejoin:round;stroke:rgb(14.901961%,19.607843%,21.960784%);stroke-opacity:1;stroke-miterlimit:4;" d="M 392.79112 230.231642 C 391.038934 233.438625 390.194991 237.06758 390.351723 240.720647 C 390.347704 241.03813 390.407986 241.355613 390.528549 241.648984 C 390.978652 242.541152 392.208398 242.541152 393.201035 242.649659 C 397.051022 243.13995 399.438175 247.198913 403.071148 248.561278 C 403.32835 248.718011 403.637796 248.766236 403.931166 248.689879 C 404.224537 248.613522 404.473701 248.42464 404.618377 248.159401 C 406.201775 246.15805 406.760385 243.348926 408.918467 242.058899 C 409.858861 241.500289 411.048418 241.271219 411.69946 240.391107 C 412.438915 239.390432 412.109375 237.95171 411.751704 236.730003 C 411.160944 234.728652 410.501865 232.650945 408.970711 231.260449 C 407.339088 229.986497 405.337738 229.283211 403.268068 229.259099 C 400.245949 229.013953 397.199717 229.295267 394.27003 230.099023 C 394.310217 230.480806 392.79112 230.231642 392.79112 230.231642 Z M 392.79112 230.231642 " transform="matrix(0.972,0,0,0.972,0,0)"/>
<path style=" stroke:none;fill-rule:nonzero;fill:rgb(100%,100%,100%);fill-opacity:1;" d="M 428.835938 248.636719 C 426.460938 245.179688 424.710938 241.328125 423.664062 237.265625 C 423.285156 235.230469 422.691406 233.238281 421.898438 231.328125 C 420.375 228.332031 417.535156 226.226562 414.226562 225.640625 C 413.53125 225.488281 412.808594 225.519531 412.128906 225.738281 C 410.71875 226.273438 410.097656 227.894531 409.816406 229.371094 C 409.203125 232.546875 409.386719 235.820312 410.339844 238.90625 C 410.992188 241.007812 418.816406 256.230469 423.949219 262.128906 C 423.5 259.15625 426.921875 249.210938 428.835938 248.636719 Z M 428.835938 248.636719 "/>
<g clip-path="url(#clip10)" clip-rule="nonzero">
<g clip-path="url(#clip11)" clip-rule="nonzero">
<path style=" stroke:none;fill-rule:nonzero;fill:rgb(20.392157%,59.607843%,85.882353%);fill-opacity:1;" d="M 413.488281 245.652344 L 418.289062 254.703125 C 418.980469 255.996094 419.757812 257.375 421.097656 257.941406 C 420.253906 254.949219 419.777344 251.867188 419.671875 248.765625 C 419.722656 247.203125 419.542969 245.644531 419.136719 244.136719 C 418.941406 244.300781 418.738281 243.601562 418.738281 243.601562 C 418.523438 244 417.960938 244.011719 417.523438 243.921875 C 414.382812 243.261719 412.226562 240.464844 410.359375 237.859375 C 409.867188 239.625 410.226562 241.523438 411.332031 242.992188 C 411.332031 242.992188 413.332031 245.351562 413.488281 245.652344 Z M 413.488281 245.652344 "/>
</g>
</g>
<path style="fill:none;stroke-width:1;stroke-linecap:round;stroke-linejoin:round;stroke:rgb(14.901961%,19.607843%,21.960784%);stroke-opacity:1;stroke-miterlimit:4;" d="M 441.189236 255.799093 C 438.74582 252.242477 436.945409 248.279964 435.868377 244.100437 C 435.478556 242.006655 434.867702 239.957079 434.05189 237.991898 C 432.484568 234.909497 429.562918 232.743377 426.159015 232.140561 C 425.443673 231.983828 424.700199 232.015979 424.000932 232.24103 C 422.550154 232.791602 421.911169 234.459394 421.621817 235.978492 C 420.990869 239.245756 421.179752 242.61349 422.160333 245.788323 C 422.831469 247.950424 430.881076 263.611593 436.161748 269.679945 C 435.699588 266.621656 439.220036 256.389853 441.189236 255.799093 Z M 441.189236 255.799093 " transform="matrix(0.972,0,0,0.972,0,0)"/>
<path style="fill-rule:nonzero;fill:rgb(100%,100%,100%);fill-opacity:1;stroke-width:1;stroke-linecap:round;stroke-linejoin:round;stroke:rgb(14.901961%,19.607843%,21.960784%);stroke-opacity:1;stroke-miterlimit:4;" d="M 434.24881 266.999421 C 428.871689 256.691262 431.471836 232.928241 431.311085 229.110404 L 438.408243 228.72862 C 439.119567 228.72862 442.410944 248.991287 444.649402 257.398566 C 446.650752 265.058353 444.729778 272.810571 441.189236 272.810571 C 438.251511 272.810571 435.378086 269.16956 434.24881 266.999421 Z M 434.24881 266.999421 " transform="matrix(0.972,0,0,0.972,0,0)"/>
<path style="fill:none;stroke-width:1;stroke-linecap:round;stroke-linejoin:round;stroke:rgb(14.901961%,19.607843%,21.960784%);stroke-opacity:1;stroke-miterlimit:4;" d="M 370.1413 240.230356 C 375.140657 232.928241 384.950489 232.349537 384.950489 232.349537 " transform="matrix(0.972,0,0,0.972,0,0)"/>
<path style="fill-rule:nonzero;fill:rgb(100%,100%,100%);fill-opacity:1;stroke-width:1;stroke-linecap:round;stroke-linejoin:round;stroke:rgb(14.901961%,19.607843%,21.960784%);stroke-opacity:1;stroke-miterlimit:4;" d="M 350.851177 244.32147 C 352.362236 242.930974 353.547775 241.222994 354.31938 239.318094 " transform="matrix(0.972,0,0,0.972,0,0)"/>
<path style="fill:none;stroke-width:1;stroke-linecap:round;stroke-linejoin:round;stroke:rgb(14.901961%,19.607843%,21.960784%);stroke-opacity:1;stroke-miterlimit:4;" d="M 388.000739 278.818641 C 390.850051 283.488458 409.308288 288.479778 416.670685 287.410783 " transform="matrix(0.972,0,0,0.972,0,0)"/>
<path style="fill:none;stroke-width:1;stroke-linecap:round;stroke-linejoin:round;stroke:rgb(14.901961%,19.607843%,21.960784%);stroke-opacity:1;stroke-miterlimit:4;" d="M 393.221129 292.000225 C 398.537969 292.916506 403.987429 292.70753 409.219875 291.389371 " transform="matrix(0.972,0,0,0.972,0,0)"/>
<path style="fill:none;stroke-width:1;stroke-linecap:round;stroke-linejoin:round;stroke:rgb(14.901961%,19.607843%,21.960784%);stroke-opacity:1;stroke-miterlimit:4;" d="M 417.711548 246.688529 L 421.231996 251.458816 C 421.71023 252.109857 422.381366 252.841274 423.169046 252.66043 " transform="matrix(0.972,0,0,0.972,0,0)"/>
<path style="fill-rule:nonzero;fill:rgb(100%,100%,100%);fill-opacity:1;stroke-width:1;stroke-linecap:round;stroke-linejoin:round;stroke:rgb(14.901961%,19.607843%,21.960784%);stroke-opacity:1;stroke-miterlimit:4;" d="M 443.86976 427.629887 C 443.560314 428.89982 443.459844 430.41088 444.368088 431.359311 C 445.28035 432.311761 446.598508 432.291667 447.828254 432.271573 L 452.060024 432.191197 C 453.691647 432.271573 455.32327 432.014371 456.850405 431.439686 C 458.413709 430.832851 459.434478 429.309735 459.398309 427.629887 C 459.29784 426.99492 459.092882 426.380048 458.799511 425.809381 C 458.421746 424.989551 458.039963 424.161683 457.670235 423.341853 C 453.000418 413.049769 445.87111 419.311021 443.86976 427.629887 Z M 443.86976 427.629887 " transform="matrix(0.972,0,0,0.972,0,0)"/>
<path style="fill-rule:nonzero;fill:rgb(100%,100%,100%);fill-opacity:1;stroke-width:1;stroke-linecap:round;stroke-linejoin:round;stroke:rgb(14.901961%,19.607843%,21.960784%);stroke-opacity:1;stroke-miterlimit:4;" d="M 437.909915 415.501222 C 438.05861 420.223283 437.660751 424.949363 436.728395 429.578993 C 436.511381 430.631912 436.728395 432.219329 437.72907 432.118859 C 438.12291 432.058578 438.476562 431.857639 438.729745 431.548193 C 442.406925 427.923257 445.035204 423.374003 446.341307 418.378665 C 446.735147 417.333783 446.698978 416.168338 446.228781 415.151588 C 445.955504 414.745692 445.617927 414.388021 445.228106 414.090631 C 441.840278 411.381977 437.600469 408.689397 437.909915 415.501222 Z M 437.909915 415.501222 " transform="matrix(0.972,0,0,0.972,0,0)"/>
<path style=" stroke:none;fill-rule:nonzero;fill:rgb(14.901961%,19.607843%,21.960784%);fill-opacity:1;" d="M 414.363281 286.378906 C 414.363281 286.378906 419.484375 295.285156 420.585938 297.355469 C 421.683594 299.425781 444.882812 329.917969 449.335938 352.117188 C 450.171875 356.335938 433.054688 403.515625 433.054688 403.515625 L 429.167969 401.320312 C 429.167969 401.320312 431.871094 358.289062 431.207031 354.710938 C 430.546875 351.136719 413.46875 324.734375 413.46875 324.734375 C 413.46875 324.734375 403.933594 317.726562 400.007812 309.582031 Z M 414.363281 286.378906 "/>
<path style=" stroke:none;fill-rule:nonzero;fill:rgb(14.901961%,19.607843%,21.960784%);fill-opacity:1;" d="M 414.917969 308.6875 C 414.917969 308.6875 412 315.179688 412 316.113281 C 412 317.046875 428.039062 367.726562 432.753906 379.449219 C 435.734375 387 438.363281 394.722656 440.636719 402.621094 C 444.046875 414.46875 442.464844 405.023438 441.082031 407.480469 C 439.703125 409.941406 434.210938 411.554688 433.085938 409.359375 C 431.957031 407.160156 420.847656 395.75 416.160156 384.398438 C 411.476562 373.042969 404.886719 354.070312 401.132812 347.003906 C 396.21875 337.972656 391.859375 328.65625 388.070312 319.097656 C 383.355469 307.035156 378.535156 294.03125 378.535156 294.03125 C 380.492188 294.207031 382.460938 294.261719 384.425781 294.195312 C 389.054688 294.039062 393.632812 293.226562 398.035156 291.785156 C 408.277344 288.34375 412.710938 281.753906 412.710938 281.753906 C 412.710938 281.753906 415.25 288.625 415.910156 289.957031 Z M 414.917969 308.6875 "/>
<path style="fill:none;stroke-width:1;stroke-linecap:round;stroke-linejoin:round;stroke:rgb(100%,100%,100%);stroke-opacity:1;stroke-miterlimit:4;" d="M 460.519547 366.72936 C 459.486722 368.50164 458.096226 370.036812 456.44049 371.238426 " transform="matrix(0.972,0,0,0.972,0,0)"/>
<path style="fill:none;stroke-width:1;stroke-linecap:round;stroke-linejoin:round;stroke:rgb(100%,100%,100%);stroke-opacity:1;stroke-miterlimit:4;" d="M 461.809574 363.819766 C 461.66088 364.306038 461.480035 364.784272 461.271058 365.25045 " transform="matrix(0.972,0,0,0.972,0,0)"/>
<path style="fill:none;stroke-width:1;stroke-linecap:round;stroke-linejoin:round;stroke:rgb(100%,100%,100%);stroke-opacity:1;stroke-miterlimit:4;" d="M 417.341821 301.998939 C 419.998232 306.580343 422.489873 313.171136 422.087995 318.451807 C 421.875 319.408275 421.541442 320.336613 421.091339 321.208687 " transform="matrix(0.972,0,0,0.972,0,0)"/>
<path style="fill:none;stroke-width:1;stroke-linecap:round;stroke-linejoin:round;stroke:rgb(100%,100%,100%);stroke-opacity:1;stroke-miterlimit:4;" d="M 401.238587 307.090728 C 401.531957 309.638632 401.921779 313.87844 401.35915 316.378119 C 400.884934 318.938079 399.418081 321.200649 397.280093 322.679559 " transform="matrix(0.972,0,0,0.972,0,0)"/>
<path style="fill:none;stroke-width:1;stroke-linecap:round;stroke-linejoin:round;stroke:rgb(100%,100%,100%);stroke-opacity:1;stroke-miterlimit:4;" d="M 423.920557 297.441647 C 424.499261 298.165027 424.973476 298.968782 425.319091 299.8288 C 426.689493 302.332497 429.060571 304.12889 431.841564 304.771894 " transform="matrix(0.972,0,0,0.972,0,0)"/>
<path style="fill:none;stroke-width:1;stroke-linecap:round;stroke-linejoin:round;stroke:rgb(100%,100%,100%);stroke-opacity:1;stroke-miterlimit:4;" d="M 415.428884 307.661394 C 418.961388 315.381462 421.662005 323.121624 427.139596 336.238908 " transform="matrix(0.972,0,0,0.972,0,0)"/>
<path style="fill:none;stroke-width:1;stroke-linecap:round;stroke-linejoin:round;stroke:rgb(100%,100%,100%);stroke-opacity:1;stroke-miterlimit:4;" d="M 413.548097 303.710938 C 413.849505 304.309735 414.138857 304.908533 414.428209 305.511349 " transform="matrix(0.972,0,0,0.972,0,0)"/>
<path style="fill:none;stroke-width:1;stroke-linecap:round;stroke-linejoin:round;stroke:rgb(100%,100%,100%);stroke-opacity:1;stroke-miterlimit:4;" d="M 442.929366 362.770865 C 444.548933 365.889435 446.606546 368.758841 449.041924 371.29067 " transform="matrix(0.972,0,0,0.972,0,0)"/>
<path style="fill:none;stroke-width:1;stroke-linecap:round;stroke-linejoin:round;stroke:rgb(100%,100%,100%);stroke-opacity:1;stroke-miterlimit:4;" d="M 444.601177 365.648309 C 445.658115 370.543178 447.595165 375.204958 450.311857 379.408597 " transform="matrix(0.972,0,0,0.972,0,0)"/>
<path style="fill:none;stroke-width:1;stroke-linecap:round;stroke-linejoin:round;stroke:rgb(100%,100%,100%);stroke-opacity:1;stroke-miterlimit:4;" d="M 419.74103 365.901492 C 411.948624 349.279835 403.641815 332.790799 393.430105 307.661394 " transform="matrix(0.972,0,0,0.972,0,0)"/>
<path style="fill:none;stroke-width:1;stroke-linecap:round;stroke-linejoin:round;stroke:rgb(100%,100%,100%);stroke-opacity:1;stroke-miterlimit:4;" d="M 421.501254 370.728041 C 421.308353 370.149338 421.111433 369.570634 420.898438 368.979874 " transform="matrix(0.972,0,0,0.972,0,0)"/>
<path style="fill:none;stroke-width:1;stroke-linecap:round;stroke-linejoin:round;stroke:rgb(100%,100%,100%);stroke-opacity:1;stroke-miterlimit:4;" d="M 448.43107 421.830793 C 446.42972 419.218589 431.849601 398.83134 428.228684 389.588156 C 425.821438 383.431391 424.000932 379.079057 422.228652 372.938368 " transform="matrix(0.972,0,0,0.972,0,0)"/>
<path style="fill:none;stroke-width:1;stroke-linecap:round;stroke-linejoin:round;stroke:rgb(100%,100%,100%);stroke-opacity:1;stroke-miterlimit:4;" d="M 442.929366 382.591467 L 449.861754 402.958623 " transform="matrix(0.972,0,0,0.972,0,0)"/>
<path style="fill-rule:nonzero;fill:rgb(100%,100%,100%);fill-opacity:1;stroke-width:1;stroke-linecap:round;stroke-linejoin:round;stroke:rgb(14.901961%,19.607843%,21.960784%);stroke-opacity:1;stroke-miterlimit:4;" d="M 438.259549 228.740676 L 436.161748 228.909465 C 433.497299 229.383681 430.764532 229.25508 428.160365 228.539738 C 426.488555 228.129823 422.618474 226.928209 422.160333 226.851852 C 421.010963 226.602688 419.849537 226.417824 418.680073 226.289223 C 415.151588 226.080247 416.939943 224.75807 418.410815 224.818351 C 420.351884 224.910783 420.998907 224.870595 422.489873 224.979102 C 422.309028 224.878633 421.758456 224.770126 421.750418 224.340117 C 421.750418 223.291217 423.128858 223.339442 423.128858 223.339442 C 423.128858 223.339442 421.621817 222.700457 421.830793 221.908758 C 422.03977 221.121078 423.048483 220.908083 423.691487 220.968364 C 423.691487 220.968364 422.839506 220.558449 422.879694 220.120403 C 423.060539 218.42046 426.548836 218.299897 426.548836 218.299897 C 425.704893 217.922132 424.917213 217.43586 424.201871 216.849119 C 423.940651 216.567805 423.755787 216.22219 423.671393 215.848444 C 423.631205 215.486754 423.795975 215.133102 424.093364 214.924126 C 424.394772 214.715149 424.784594 214.687018 425.110114 214.851788 C 426.014339 215.450585 426.882395 216.097608 427.7183 216.788837 C 428.799351 217.560442 430.04919 218.050733 431.190522 218.741962 C 432.299704 219.690394 433.195891 220.867895 433.818801 222.190072 C 433.999646 222.471386 438.259549 228.740676 438.259549 228.740676 Z M 438.259549 228.740676 " transform="matrix(0.972,0,0,0.972,0,0)"/>
<path style="fill-rule:nonzero;fill:rgb(100%,100%,100%);fill-opacity:1;stroke-width:1;stroke-linecap:round;stroke-linejoin:round;stroke:rgb(14.901961%,19.607843%,21.960784%);stroke-opacity:1;stroke-miterlimit:4;" d="M 343.778131 207.509484 L 343.778131 201.999743 C 343.766075 199.234825 344.171971 196.485983 344.979745 193.841628 C 345.441905 192.378794 345.980421 191.108861 346.470711 190.919978 C 347.378954 190.590439 347.780832 194.279675 347.780832 194.279675 C 347.09764 191.321856 346.659594 188.311793 346.470711 185.281636 C 346.470711 182.070634 350.790895 195.400913 350.790895 195.400913 L 349.070859 207.509484 Z M 343.778131 207.509484 " transform="matrix(0.972,0,0,0.972,0,0)"/>
<path style="fill-rule:nonzero;fill:rgb(100%,100%,100%);fill-opacity:1;stroke-width:1;stroke-linecap:round;stroke-linejoin:round;stroke:rgb(14.901961%,19.607843%,21.960784%);stroke-opacity:1;stroke-miterlimit:4;" d="M 348.998521 198.551633 C 349.520962 198.145737 349.910783 197.595165 350.11976 196.968236 " transform="matrix(0.972,0,0,0.972,0,0)"/>
<path style="fill-rule:nonzero;fill:rgb(100%,100%,100%);fill-opacity:1;stroke-width:1;stroke-linecap:round;stroke-linejoin:round;stroke:rgb(14.901961%,19.607843%,21.960784%);stroke-opacity:1;stroke-miterlimit:4;" d="M 390.878183 218.999164 C 392.746914 222.145865 393.779739 225.714538 393.880208 229.371624 C 394.061053 235.448013 401.101948 243.95978 403.111336 244.369695 C 405.120724 244.77961 406.981417 234.76884 406.888985 231.738683 C 406.800572 228.708526 405.679334 220.341435 405.679334 220.341435 C 405.679334 220.341435 396.050347 213.059414 390.878183 218.999164 Z M 390.878183 218.999164 " transform="matrix(0.972,0,0,0.972,0,0)"/>
<path style=" stroke:none;fill-rule:nonzero;fill:rgb(14.901961%,19.607843%,21.960784%);fill-opacity:1;" d="M 382.6875 220.691406 C 382.6875 220.691406 391.65625 232.929688 395.175781 220.488281 C 398.695312 208.046875 385.308594 223.890625 382.6875 220.691406 Z M 382.6875 220.691406 "/>
<path style="fill-rule:nonzero;fill:rgb(100%,100%,100%);fill-opacity:1;stroke-width:1;stroke-linecap:round;stroke-linejoin:round;stroke:rgb(14.901961%,19.607843%,21.960784%);stroke-opacity:1;stroke-miterlimit:4;" d="M 409.288194 217.998489 C 408.801923 225.469393 405.389982 229.669014 401.459619 230.408468 C 397.870853 231.071566 392.618313 227.410462 389.998071 221.981096 C 389.801151 221.848476 386.610243 219.638149 385.850694 219.099633 C 385.042921 218.537005 384.564686 217.612686 384.568705 216.628086 C 384.620949 215.679655 385.247878 214.855806 386.148084 214.550379 L 386.240516 214.550379 C 386.690619 214.453929 387.160815 214.486079 387.590824 214.650849 C 386.931745 212.098926 386.38921 209.510835 385.979295 206.89863 C 386.168178 200.898598 388.16149 195.999711 394.559381 195.521476 C 400.961291 195.039223 406.310282 198.619952 406.559446 201.200006 C 406.740291 203.201357 407.391332 208.490066 407.970036 213.959619 C 408.130787 215.378247 409.40072 216.318641 409.288194 217.998489 Z M 409.288194 217.998489 " transform="matrix(0.972,0,0,0.972,0,0)"/>
<path style="fill-rule:nonzero;fill:rgb(100%,100%,100%);fill-opacity:1;stroke-width:1;stroke-linecap:round;stroke-linejoin:round;stroke:rgb(14.901961%,19.607843%,21.960784%);stroke-opacity:1;stroke-miterlimit:4;" d="M 406.559446 209.358121 C 406.559446 209.358121 402.440201 207.469297 403.139468 213.609986 C 403.280125 214.819637 405.530639 216.607993 405.530639 216.607993 C 405.530639 216.607993 404.951935 218.42046 403.878922 218.42046 " transform="matrix(0.972,0,0,0.972,0,0)"/>
<path style="fill-rule:nonzero;fill:rgb(100%,100%,100%);fill-opacity:1;stroke-width:1;stroke-linecap:round;stroke-linejoin:round;stroke:rgb(14.901961%,19.607843%,21.960784%);stroke-opacity:1;stroke-miterlimit:4;" d="M 398.598251 211.459941 C 398.598251 211.459941 396.50045 210.18197 395.061728 210.96965 C 394.310217 211.295171 393.671232 211.833687 393.221129 212.520898 " transform="matrix(0.972,0,0,0.972,0,0)"/>
<path style=" stroke:none;fill-rule:nonzero;fill:rgb(14.901961%,19.607843%,21.960784%);fill-opacity:1;" d="M 386.273438 208.980469 C 386.429688 209.699219 386.273438 210.339844 385.855469 210.429688 C 385.4375 210.515625 385.027344 209.992188 384.882812 209.273438 C 384.738281 208.550781 384.882812 207.910156 385.308594 207.824219 C 385.738281 207.734375 386.128906 208.25 386.273438 208.980469 Z M 386.273438 208.980469 "/>
<path style=" stroke:none;fill-rule:nonzero;fill:rgb(14.901961%,19.607843%,21.960784%);fill-opacity:1;" d="M 394.164062 206.878906 C 394.320312 207.601562 394.164062 208.242188 393.746094 208.328125 C 393.328125 208.417969 392.921875 207.890625 392.777344 207.183594 C 392.628906 206.472656 392.777344 205.8125 393.195312 205.734375 C 393.613281 205.65625 394.019531 206.171875 394.164062 206.878906 Z M 394.164062 206.878906 "/>
<path style="fill-rule:nonzero;fill:rgb(14.901961%,19.607843%,21.960784%);fill-opacity:1;stroke-width:1;stroke-linecap:round;stroke-linejoin:round;stroke:rgb(14.901961%,19.607843%,21.960784%);stroke-opacity:1;stroke-miterlimit:4;" d="M 385.501061 199.150431 C 384.769644 199.865773 384.263278 200.782054 384.038227 201.77871 C 382.828575 206.050669 383.383166 210.628054 385.56938 214.490098 C 386.236497 214.409722 386.911651 214.433835 387.57073 214.570473 C 388.269997 214.751318 389.170203 215.948913 389.499743 216.571824 C 389.789095 217.230903 389.953864 217.938207 389.990033 218.661587 C 389.829282 216.760706 389.680588 214.871881 389.519837 212.971001 C 389.41133 212.211452 389.447499 211.435828 389.620306 210.688336 C 390.110597 209.129051 389.568062 205.451871 389.708719 202.160494 C 393.860114 207.22817 399.888278 206.331983 401.889628 206.159176 C 404.891654 205.910012 407.451614 202.839667 407.290863 200.649434 C 407.130112 198.459201 406.539352 192.820859 396.649145 192.238137 C 394.470968 192.009066 392.272698 192.467207 390.371817 193.548257 C 389.150109 194.356031 388.330279 195.64204 388.121303 197.088799 C 387.980646 198.009099 388.330279 198.089474 387.631012 198.539577 C 386.931745 198.98968 386.188272 198.559671 385.501061 199.150431 Z M 385.501061 199.150431 " transform="matrix(0.972,0,0,0.972,0,0)"/>
<path style="fill-rule:nonzero;fill:rgb(100%,100%,100%);fill-opacity:1;stroke-width:1;stroke-linecap:round;stroke-linejoin:round;stroke:rgb(14.901961%,19.607843%,21.960784%);stroke-opacity:1;stroke-miterlimit:4;" d="M 398.598251 221.940908 C 398.598251 221.940908 400.069123 223.560475 403.139468 222.49148 " transform="matrix(0.972,0,0,0.972,0,0)"/>
</g>
</svg>
