<?xml version="1.0" encoding="UTF-8"?>
<svg xmlns="http://www.w3.org/2000/svg" xmlns:xlink="http://www.w3.org/1999/xlink" viewBox="0 0 24 24" width="24px" height="24px">
<g id="surface16653388">
<path style=" stroke:none;fill-rule:nonzero;fill:rgb(20.392157%,59.607846%,85.882354%);fill-opacity:1;" d="M 4.210938 7 L 4.238281 7 C 5.632812 7 6.5 6 6.5 4.75 C 6.472656 3.472656 5.632812 2.5 4.261719 2.5 C 2.894531 2.5 2 3.472656 2 4.75 C 2 6 2.867188 7 4.210938 7 Z M 2 8.5 L 6.5 8.5 L 6.5 21.5 L 2 21.5 Z M 22 13.25 C 22 10.625 19.875 8.5 17.25 8.5 C 15.722656 8.5 14.367188 9.222656 13.5 10.34375 L 13.5 8.5 L 9 8.5 L 9 21.5 L 13.5 21.5 L 13.5 14 C 13.5 12.894531 14.394531 12 15.5 12 C 16.605469 12 17.5 12.894531 17.5 14 L 17.5 21.5 L 22 21.5 C 22 21.5 22 13.976562 22 13.25 Z M 22 13.25 "/>
</g>
</svg>
