<?xml version="1.0" encoding="UTF-8"?>
<svg xmlns="http://www.w3.org/2000/svg" xmlns:xlink="http://www.w3.org/1999/xlink" viewBox="0 0 24 24" width="24px" height="24px">
<g id="surface16643306">
<path style=" stroke:none;fill-rule:nonzero;fill:rgb(20.392157%,59.607846%,85.882354%);fill-opacity:1;" d="M 22.144531 3.144531 C 21.785156 2.839844 21.21875 2.796875 20.636719 3.03125 L 20.632812 3.03125 C 20.019531 3.277344 3.230469 10.480469 2.546875 10.773438 C 2.421875 10.816406 1.335938 11.222656 1.449219 12.125 C 1.546875 12.9375 2.421875 13.273438 2.527344 13.3125 L 6.796875 14.773438 C 7.078125 15.71875 8.121094 19.195312 8.351562 19.9375 C 8.496094 20.402344 8.730469 21.011719 9.144531 21.136719 C 9.503906 21.277344 9.863281 21.148438 10.097656 20.964844 L 12.707031 18.546875 L 16.917969 21.832031 L 17.019531 21.890625 C 17.304688 22.019531 17.578125 22.082031 17.839844 22.082031 C 18.042969 22.082031 18.238281 22.042969 18.421875 21.96875 C 19.054688 21.707031 19.304688 21.105469 19.332031 21.039062 L 22.480469 4.679688 C 22.671875 3.808594 22.402344 3.363281 22.144531 3.144531 Z M 10.558594 15.359375 L 9.121094 19.199219 L 7.679688 14.398438 L 18.71875 6.238281 Z M 10.558594 15.359375 "/>
</g>
</svg>
