<?xml version="1.0" encoding="UTF-8"?>
<svg xmlns="http://www.w3.org/2000/svg" xmlns:xlink="http://www.w3.org/1999/xlink" width="58px" height="58px" viewBox="0 0 58 58" version="1.1">
<g id="surface1">
<path style=" stroke:none;fill-rule:nonzero;fill:rgb(100%,17.647059%,12.54902%);fill-opacity:1;" d="M 57.089844 13.097656 C 57.113281 13.175781 57.121094 13.253906 57.121094 13.335938 L 57.121094 25.765625 C 57.121094 26.085938 56.949219 26.386719 56.664062 26.550781 L 46.238281 32.554688 L 46.238281 44.460938 C 46.238281 44.78125 46.0625 45.082031 45.785156 45.246094 L 24.007812 57.777344 C 23.960938 57.804688 23.902344 57.824219 23.847656 57.84375 C 23.828125 57.851562 23.808594 57.863281 23.789062 57.867188 C 23.636719 57.90625 23.476562 57.90625 23.324219 57.867188 C 23.300781 57.863281 23.277344 57.847656 23.253906 57.839844 C 23.203125 57.824219 23.152344 57.804688 23.101562 57.777344 L 1.335938 45.246094 C 1.050781 45.082031 0.878906 44.78125 0.878906 44.460938 L 0.878906 7.175781 C 0.878906 7.09375 0.886719 7.011719 0.910156 6.933594 C 0.917969 6.910156 0.933594 6.886719 0.941406 6.859375 C 0.960938 6.816406 0.972656 6.765625 1 6.71875 C 1.015625 6.691406 1.039062 6.664062 1.0625 6.640625 C 1.085938 6.601562 1.113281 6.566406 1.144531 6.535156 C 1.167969 6.507812 1.203125 6.488281 1.230469 6.46875 C 1.265625 6.4375 1.296875 6.410156 1.332031 6.390625 L 1.335938 6.390625 L 12.214844 0.121094 C 12.5 -0.0390625 12.84375 -0.0390625 13.121094 0.121094 L 24.007812 6.390625 L 24.011719 6.390625 C 24.046875 6.410156 24.078125 6.4375 24.109375 6.464844 C 24.140625 6.488281 24.175781 6.507812 24.199219 6.535156 C 24.230469 6.566406 24.253906 6.601562 24.28125 6.640625 C 24.296875 6.664062 24.328125 6.691406 24.339844 6.71875 C 24.371094 6.765625 24.382812 6.816406 24.402344 6.859375 C 24.414062 6.886719 24.425781 6.910156 24.433594 6.9375 C 24.453125 7.015625 24.464844 7.09375 24.464844 7.175781 L 24.464844 30.460938 L 33.535156 25.238281 L 33.535156 13.335938 C 33.535156 13.253906 33.546875 13.171875 33.566406 13.097656 C 33.574219 13.070312 33.589844 13.046875 33.597656 13.019531 C 33.617188 12.972656 33.632812 12.925781 33.660156 12.882812 C 33.671875 12.851562 33.703125 12.828125 33.71875 12.800781 C 33.746094 12.765625 33.769531 12.726562 33.800781 12.695312 C 33.824219 12.667969 33.859375 12.648438 33.890625 12.628906 C 33.925781 12.597656 33.953125 12.570312 33.988281 12.550781 L 44.878906 6.28125 C 45.15625 6.121094 45.5 6.121094 45.785156 6.28125 L 56.664062 12.550781 C 56.703125 12.570312 56.734375 12.597656 56.769531 12.628906 C 56.796875 12.648438 56.832031 12.667969 56.855469 12.695312 C 56.886719 12.726562 56.910156 12.765625 56.9375 12.800781 C 56.960938 12.828125 56.984375 12.851562 57 12.882812 C 57.027344 12.925781 57.039062 12.972656 57.058594 13.019531 C 57.070312 13.046875 57.082031 13.070312 57.089844 13.097656 Z M 55.304688 25.238281 L 55.304688 14.902344 L 51.496094 17.097656 L 46.238281 20.125 L 46.238281 30.460938 Z M 44.421875 43.933594 L 44.421875 33.589844 L 39.246094 36.546875 L 24.464844 44.984375 L 24.464844 55.421875 Z M 2.695312 8.742188 L 2.695312 43.933594 L 22.648438 55.421875 L 22.648438 44.988281 L 12.222656 39.085938 L 12.21875 39.082031 L 12.214844 39.082031 C 12.179688 39.0625 12.152344 39.03125 12.117188 39.007812 C 12.089844 38.984375 12.058594 38.964844 12.03125 38.941406 L 12.027344 38.9375 C 12 38.910156 11.980469 38.875 11.953125 38.839844 C 11.933594 38.8125 11.90625 38.785156 11.886719 38.753906 L 11.886719 38.75 C 11.867188 38.71875 11.851562 38.675781 11.839844 38.636719 C 11.824219 38.605469 11.804688 38.574219 11.796875 38.535156 C 11.785156 38.492188 11.78125 38.445312 11.777344 38.402344 C 11.773438 38.367188 11.761719 38.335938 11.761719 38.300781 L 11.761719 13.964844 L 6.503906 10.933594 Z M 12.671875 1.953125 L 3.605469 7.175781 L 12.667969 12.394531 L 21.738281 7.171875 L 12.667969 1.953125 Z M 17.390625 34.53125 L 22.648438 31.507812 L 22.648438 8.742188 L 18.839844 10.933594 L 13.578125 13.964844 L 13.578125 36.726562 Z M 45.332031 8.113281 L 36.261719 13.335938 L 45.332031 18.558594 L 54.394531 13.335938 Z M 44.421875 20.125 L 39.160156 17.097656 L 35.351562 14.902344 L 35.351562 25.238281 L 40.609375 28.265625 L 44.421875 30.460938 Z M 23.554688 43.414062 L 36.855469 35.820312 L 43.503906 32.027344 L 34.445312 26.8125 L 24.011719 32.816406 L 14.5 38.292969 Z M 23.554688 43.414062 "/>
</g>
</svg>
