<?xml version="1.0" encoding="UTF-8"?>
<svg xmlns="http://www.w3.org/2000/svg" xmlns:xlink="http://www.w3.org/1999/xlink" width="64px" height="64px" viewBox="0 0 64 64" version="1.1">
<defs>
<radialGradient id="radial0" gradientUnits="userSpaceOnUse" cx="0.8366" cy="-125.811" fx="0.8366" fy="-125.811" r="363.0565" gradientTransform="matrix(0.11575,0,0,0.11575,19.1161,35.60455)">
<stop offset="0" style="stop-color:rgb(100%,100%,100%);stop-opacity:1;"/>
<stop offset="0.5" style="stop-color:rgb(29.803922%,41.960784%,59.215686%);stop-opacity:1;"/>
<stop offset="1" style="stop-color:rgb(13.72549%,12.156863%,12.54902%);stop-opacity:1;"/>
</radialGradient>
</defs>
<g id="surface1">
<path style=" stroke:none;fill-rule:nonzero;fill:url(#radial0);" d="M 64 31.949219 C 64 22.65625 49.671875 15.125 32 15.125 C 14.328125 15.125 0 22.65625 0 31.949219 C 0 41.242188 14.328125 48.773438 32 48.773438 C 49.671875 48.773438 64 41.242188 64 31.949219 Z M 64 31.949219 "/>
<path style=" stroke:none;fill-rule:nonzero;fill:rgb(38.039216%,50.588235%,71.372549%);fill-opacity:1;" d="M 62.75 31.949219 C 62.75 23.347656 48.984375 16.375 32 16.375 C 15.015625 16.375 1.25 23.347656 1.25 31.949219 C 1.25 40.550781 15.015625 47.523438 32 47.523438 C 48.984375 47.523438 62.75 40.550781 62.75 31.949219 Z M 62.75 31.949219 "/>
<path style=" stroke:none;fill-rule:nonzero;fill:rgb(100%,100%,100%);fill-opacity:1;" d="M 38.226562 37 C 38.226562 37 39.75 29.148438 39.75 29.148438 C 40.101562 27.375 39.800781 26.050781 38.898438 25.226562 C 38.023438 24.425781 36.523438 24.023438 34.324219 24.023438 L 31.675781 24.023438 L 32.425781 20.125 C 32.449219 19.976562 32.425781 19.824219 32.324219 19.699219 C 32.226562 19.574219 32.101562 19.523438 31.949219 19.523438 L 28.300781 19.523438 C 28.050781 19.523438 27.851562 19.699219 27.800781 19.925781 L 26.175781 28.25 C 26.023438 27.300781 25.675781 26.5 25.074219 25.851562 C 24 24.625 22.324219 24 20.050781 24 L 13.023438 24 C 12.773438 24 12.574219 24.175781 12.523438 24.398438 L 9.25 41.300781 C 9.226562 41.449219 9.25 41.601562 9.351562 41.726562 C 9.449219 41.851562 9.574219 41.898438 9.726562 41.898438 L 13.398438 41.898438 C 13.648438 41.898438 13.851562 41.726562 13.898438 41.5 L 14.699219 37.425781 L 17.425781 37.425781 C 18.851562 37.425781 20.074219 37.273438 21 36.976562 C 21.976562 36.648438 22.851562 36.125 23.625 35.398438 C 24.25 34.824219 24.773438 34.175781 25.175781 33.476562 L 24.523438 36.851562 C 24.5 37 24.523438 37.148438 24.625 37.273438 C 24.726562 37.398438 24.851562 37.449219 25 37.449219 L 28.648438 37.449219 C 28.898438 37.449219 29.101562 37.273438 29.148438 37.050781 L 30.949219 27.800781 L 33.449219 27.800781 C 34.523438 27.800781 34.824219 28 34.925781 28.101562 C 35 28.175781 35.148438 28.476562 34.976562 29.398438 L 33.523438 36.875 C 33.5 37.023438 33.523438 37.175781 33.625 37.300781 C 33.726562 37.425781 33.851562 37.476562 34 37.476562 L 37.75 37.476562 C 37.976562 37.398438 38.175781 37.226562 38.226562 37 Z M 21.324219 30.5 C 21.101562 31.675781 20.675781 32.523438 20.050781 33 C 19.425781 33.476562 18.398438 33.726562 17.050781 33.726562 L 15.425781 33.726562 L 16.601562 27.675781 L 18.699219 27.675781 C 20.25 27.675781 20.875 28 21.125 28.273438 C 21.449219 28.675781 21.523438 29.449219 21.324219 30.5 Z M 21.324219 30.5 "/>
<path style=" stroke:none;fill-rule:nonzero;fill:rgb(100%,100%,100%);fill-opacity:1;" d="M 53.824219 25.851562 C 52.75 24.625 51.074219 24 48.800781 24 L 41.726562 24 C 41.476562 24 41.273438 24.175781 41.226562 24.398438 L 37.949219 41.273438 C 37.925781 41.425781 37.949219 41.574219 38.050781 41.699219 C 38.148438 41.824219 38.273438 41.875 38.425781 41.875 L 42.101562 41.875 C 42.351562 41.875 42.550781 41.699219 42.601562 41.476562 L 43.398438 37.398438 L 46.125 37.398438 C 47.550781 37.398438 48.773438 37.25 49.699219 36.949219 C 50.675781 36.625 51.550781 36.101562 52.324219 35.375 C 52.976562 34.773438 53.523438 34.101562 53.925781 33.375 C 54.324219 32.648438 54.625 31.851562 54.800781 30.976562 C 55.226562 28.800781 54.898438 27.101562 53.824219 25.851562 Z M 50 30.5 C 49.773438 31.675781 49.351562 32.523438 48.726562 33 C 48.101562 33.476562 47.074219 33.726562 45.726562 33.726562 L 44.101562 33.726562 L 45.273438 27.675781 L 47.375 27.675781 C 48.925781 27.675781 49.550781 28 49.800781 28.273438 C 50.148438 28.675781 50.226562 29.449219 50 30.5 Z M 50 30.5 "/>
<path style=" stroke:none;fill-rule:nonzero;fill:rgb(0%,0%,1.568627%);fill-opacity:1;" d="M 18.699219 27.175781 C 20.101562 27.175781 21.023438 27.425781 21.5 27.949219 C 21.976562 28.476562 22.074219 29.351562 21.824219 30.601562 C 21.574219 31.898438 21.074219 32.851562 20.351562 33.398438 C 19.625 33.949219 18.523438 34.226562 17.050781 34.226562 L 14.824219 34.226562 L 16.199219 27.175781 Z M 9.75 41.375 L 13.425781 41.375 L 14.300781 36.898438 L 17.449219 36.898438 C 18.851562 36.898438 19.976562 36.75 20.875 36.449219 C 21.773438 36.148438 22.574219 35.675781 23.324219 34.976562 C 23.949219 34.398438 24.449219 33.773438 24.824219 33.101562 C 25.199219 32.425781 25.476562 31.675781 25.625 30.851562 C 26.023438 28.851562 25.726562 27.300781 24.75 26.175781 C 23.773438 25.050781 22.226562 24.5 20.101562 24.5 L 13.023438 24.5 Z M 9.75 41.375 "/>
<path style=" stroke:none;fill-rule:nonzero;fill:rgb(0%,0%,1.568627%);fill-opacity:1;" d="M 28.324219 20.023438 L 31.976562 20.023438 L 31.101562 24.5 L 34.351562 24.5 C 36.398438 24.5 37.800781 24.851562 38.574219 25.574219 C 39.351562 26.300781 39.574219 27.449219 39.273438 29.050781 L 37.75 36.898438 L 34.050781 36.898438 L 35.5 29.425781 C 35.675781 28.574219 35.601562 28 35.324219 27.699219 C 35.050781 27.398438 34.425781 27.226562 33.5 27.226562 L 30.574219 27.226562 L 28.699219 36.898438 L 25.050781 36.898438 Z M 28.324219 20.023438 "/>
<path style=" stroke:none;fill-rule:nonzero;fill:rgb(0%,0%,1.568627%);fill-opacity:1;" d="M 47.375 27.175781 C 48.773438 27.175781 49.699219 27.425781 50.175781 27.949219 C 50.648438 28.476562 50.75 29.351562 50.5 30.601562 C 50.25 31.898438 49.75 32.851562 49.023438 33.398438 C 48.300781 33.949219 47.199219 34.226562 45.726562 34.226562 L 43.5 34.226562 L 44.875 27.175781 Z M 38.425781 41.375 L 42.101562 41.375 L 42.976562 36.898438 L 46.125 36.898438 C 47.523438 36.898438 48.648438 36.75 49.550781 36.449219 C 50.449219 36.148438 51.25 35.675781 52 34.976562 C 52.625 34.398438 53.125 33.773438 53.5 33.101562 C 53.875 32.425781 54.148438 31.675781 54.300781 30.851562 C 54.699219 28.851562 54.398438 27.300781 53.425781 26.175781 C 52.449219 25.050781 50.898438 24.5 48.773438 24.5 L 41.699219 24.5 Z M 38.425781 41.375 "/>
</g>
</svg>
